<svg width="353" height="230" viewBox="0 0 353 230" fill="none" xmlns="http://www.w3.org/2000/svg">
<line y1="0.5" x2="351" y2="0.5" stroke="#D5D5D5" stroke-dasharray="5 5"/>
<g clip-path="url(#clip0_664_23332)">
<path d="M158.152 202.805C159.866 202.28 161.31 202.114 163.155 202.645C163.73 202.811 164.305 202.948 164.886 203.068C166.719 202.251 168.665 201.949 170.763 202.377C171.536 202.537 172.258 202.754 172.906 203.028C173.194 203.153 173.482 203.29 173.764 203.439C173.792 203.439 173.826 203.439 173.854 203.433C175.704 203.273 177.599 202.856 179.488 202.514C179.753 202.188 179.985 201.834 180.182 201.475C180.306 201.246 180.402 200.795 180.599 200.63C180.769 200.487 181.062 200.647 181.231 200.43C181.361 200.264 181.412 200.099 181.412 199.927C180.599 199.939 179.782 199.842 178.958 199.579C176.995 198.968 176.07 198.192 174.068 198.774C172.066 199.356 170.193 200.361 168.157 200.824C167.904 200.881 167.644 200.904 167.385 200.898C166.888 201.007 166.375 201.081 165.772 201.081C164.796 201.081 163.877 201.029 162.918 200.921C161.998 200.818 161.113 200.795 160.239 200.795C158.547 201.001 156.838 201.092 155.112 201.138C154.559 201.572 154.074 201.943 153.668 202.582C153.837 202.565 154.006 202.548 154.176 202.531C155.546 202.417 156.849 202.531 158.152 202.805Z" fill="#5BBAAA"/>
<path d="M152.957 210.45C154.542 210.604 156.071 211.301 157.672 211.495C158.124 211.552 158.569 211.615 159.009 211.683C159.026 211.387 159.048 211.101 159.088 210.816C158.659 210.736 158.242 210.622 157.847 210.473C157.684 210.41 157.537 210.347 157.385 210.29C155.478 209.502 154.565 208.783 152.495 209.148C152.094 209.217 151.694 209.291 151.293 209.365C151.237 209.708 151.186 210.062 151.152 210.41C151.767 210.382 152.382 210.393 152.963 210.45H152.957Z" fill="#1C0912"/>
<path d="M182.456 209.742C181.863 209.405 180.933 209.674 180.29 209.674H171.508C170.995 209.674 170.284 209.611 169.641 209.685C169.326 209.776 169.01 209.862 168.694 209.953C168.609 209.999 168.53 210.056 168.457 210.119C168.378 210.193 168.31 210.273 168.254 210.37C169.472 210.21 170.702 210.119 171.909 210.096C173.86 210.068 175.789 210.37 177.718 210.416C177.729 210.416 177.746 210.422 177.763 210.427C178.688 210.604 179.596 210.576 180.532 210.604C181.311 210.633 182.083 210.65 182.862 210.696C182.913 210.313 182.873 209.976 182.461 209.742H182.456Z" fill="#1C0912"/>
<path d="M168.693 209.954C169.015 209.862 169.331 209.777 169.641 209.685C169.286 209.725 168.958 209.805 168.693 209.954Z" fill="#5BBAAA"/>
<path d="M157.38 210.29C157.527 210.347 157.679 210.41 157.843 210.473C158.243 210.622 158.655 210.736 159.083 210.816C159.196 209.959 159.399 209.137 159.704 208.355C159.749 208.235 159.8 208.121 159.851 208.007C159.805 208.001 159.76 207.995 159.715 207.984C157.544 207.607 155.575 207.544 153.364 207.595C152.806 207.607 152.236 207.607 151.667 207.613C151.509 208.184 151.385 208.766 151.283 209.365C151.684 209.291 152.084 209.217 152.485 209.148C154.56 208.783 155.468 209.508 157.375 210.29H157.38Z" fill="#5BBAAA"/>
<path d="M159.714 207.989C159.76 207.995 159.805 208.001 159.85 208.012C160.115 207.43 160.442 206.905 160.747 206.339C160.961 205.94 161.062 205.237 161.429 204.963C161.818 204.666 162.422 204.489 162.862 204.198C162.991 204.113 163.115 204.033 163.245 203.953C162.072 203.804 160.933 203.587 159.669 203.199C159.162 203.045 158.66 202.914 158.152 202.805C157.656 202.959 157.137 203.136 156.579 203.347C155.247 203.838 153.933 204.369 152.63 204.923C152.535 205.169 152.444 205.409 152.343 205.643C152.078 206.282 151.852 206.939 151.666 207.613C152.236 207.613 152.805 207.613 153.364 207.595C155.569 207.55 157.543 207.607 159.714 207.984V207.989Z" fill="#1C0912"/>
<path d="M158.152 202.805C156.849 202.525 155.547 202.417 154.176 202.531C154.007 202.548 153.838 202.565 153.668 202.582C153.601 202.685 153.539 202.799 153.471 202.919C153.144 203.559 152.884 204.25 152.625 204.923C153.928 204.369 155.242 203.838 156.573 203.347C157.131 203.142 157.65 202.959 158.147 202.805H158.152Z" fill="#51AF7F"/>
<path d="M173.763 203.439C174.124 203.627 174.48 203.833 174.818 204.055C175.196 204.301 175.574 204.575 175.946 204.866C176.623 205.397 176.837 205.529 177.384 204.963C177.937 204.392 178.332 203.633 178.941 203.085C179.133 202.908 179.313 202.714 179.483 202.508C177.593 202.851 175.698 203.262 173.848 203.427C173.82 203.427 173.786 203.427 173.758 203.433L173.763 203.439Z" fill="#F18C1C"/>
<path d="M158.152 202.805C158.654 202.914 159.156 203.045 159.67 203.199C160.933 203.582 162.072 203.804 163.245 203.953C163.781 203.616 164.328 203.325 164.887 203.073C164.306 202.953 163.73 202.816 163.155 202.651C161.311 202.12 159.867 202.28 158.152 202.811V202.805Z" fill="#F18C1C"/>
<path d="M162.913 200.921C163.872 201.029 164.791 201.081 165.767 201.081C166.365 201.081 166.884 201.007 167.38 200.898C167.645 200.898 167.905 200.881 168.153 200.824C170.189 200.361 172.061 199.351 174.064 198.774C176.066 198.192 176.991 198.968 178.954 199.579C179.777 199.836 180.595 199.933 181.407 199.927C181.396 199.465 180.961 198.997 180.409 198.574C179.867 198.483 179.32 198.443 178.779 198.374C177.831 198.26 176.951 198.038 175.97 197.861C174.075 197.524 172.287 197.621 170.347 197.689C169.574 197.718 168.801 197.809 168.085 198.055C166.94 198.449 165.756 198.877 164.611 199.311C161.932 200.333 159.016 200.247 156.145 200.213C156.004 200.361 155.863 200.504 155.711 200.635C155.502 200.818 155.299 200.984 155.102 201.132C156.827 201.086 158.536 200.995 160.228 200.79C161.103 200.79 161.982 200.812 162.907 200.915L162.913 200.921Z" fill="#008BAD"/>
<path d="M164.622 199.316C165.762 198.883 166.952 198.454 168.097 198.06C168.813 197.815 169.586 197.723 170.358 197.695C172.293 197.626 174.086 197.529 175.981 197.866C176.963 198.038 177.843 198.26 178.79 198.38C179.332 198.449 179.884 198.489 180.42 198.58C179.614 197.969 178.553 197.467 178.198 197.272C177.453 196.861 176.692 196.502 175.897 196.205C174.853 195.822 173.714 195.525 172.507 195.314C171.3 195.108 169.935 195.006 168.463 195.006C165.948 195.006 163.596 195.468 161.486 196.376C160.172 196.941 158.74 197.741 157.634 198.648C157.07 199.111 156.647 199.699 156.162 200.224C159.039 200.259 161.949 200.344 164.628 199.322L164.622 199.316Z" fill="#2870B2"/>
<path d="M153.934 212.34C155.118 212.083 156.387 211.878 157.611 211.9C158.074 211.912 158.53 211.94 158.993 211.969C158.993 211.872 158.993 211.781 159.004 211.684C158.564 211.615 158.119 211.552 157.667 211.495C156.066 211.301 154.537 210.599 152.952 210.45C152.366 210.393 151.757 210.382 151.142 210.41C151.074 211.061 151.035 211.723 151.035 212.392V212.489C151.035 212.694 151.035 212.9 151.023 213.111C151.294 213.002 151.554 212.894 151.796 212.808C152.496 212.557 153.212 212.494 153.934 212.34Z" fill="#456F88"/>
<path d="M174.131 225.598C173.974 225.575 173.816 225.541 173.646 225.495C172.236 225.13 170.804 224.947 169.349 224.856C167.335 224.73 165.327 224.365 163.314 224.256C163.009 224.239 162.705 224.233 162.4 224.239C162.377 224.239 162.355 224.239 162.338 224.239C161.904 224.245 161.469 224.268 161.041 224.302C160.81 224.325 160.578 224.347 160.347 224.376C160.229 224.393 160.11 224.405 159.992 224.422C159.794 224.45 159.597 224.479 159.4 224.507C159.349 224.513 159.292 224.524 159.242 224.53C159.242 224.53 159.236 224.53 159.23 224.53C158.204 224.696 157.183 224.913 156.162 225.13C157.031 225.958 157.995 226.694 159.055 227.316C159.8 227.756 160.584 228.15 161.413 228.487C162.659 228.989 163.974 229.281 165.26 229.612C168.869 230.537 173.223 229.703 176.579 228.224C177.104 227.996 177.611 227.75 178.102 227.493C178.452 227.316 178.79 227.128 179.129 226.94C180.003 226.437 180.849 225.889 181.655 225.278C181.915 225.078 182.118 224.936 182.27 224.793C180.522 224.93 178.751 225.067 177.03 225.375C176.822 225.415 176.624 225.449 176.433 225.484C176.348 225.501 176.263 225.512 176.173 225.529C175.491 225.644 174.859 225.718 174.131 225.598Z" fill="#003956"/>
<path d="M156.162 225.13C157.183 224.918 158.204 224.696 159.23 224.53C158.204 224.696 157.183 224.913 156.162 225.13Z" fill="#003956"/>
<path d="M159.253 214.978C159.224 214.847 159.196 214.715 159.174 214.584C157.724 214.715 156.286 214.932 154.819 215.292C153.613 215.583 152.349 215.737 151.131 215.754C151.159 215.886 151.193 216.017 151.232 216.148C151.272 216.263 151.3 216.383 151.334 216.502C152.445 216.285 153.556 216.069 154.662 215.834C156.201 215.515 157.724 215.195 159.258 214.978H159.253Z" fill="#2870B2"/>
<path d="M172.912 214.978C171.277 215.241 169.635 215.041 167.994 214.818C167.994 214.921 167.994 215.024 167.994 215.121C168.479 215.161 168.964 215.184 169.455 215.184C170.859 215.184 172.405 215.372 173.77 215.052C174.762 214.818 175.783 214.704 176.764 214.441C177.216 214.321 177.627 214.099 178.062 213.939C178.586 213.739 179.021 213.859 179.579 213.87C180.667 213.893 181.745 214.03 182.72 214.487C182.72 214.413 182.72 214.338 182.72 214.264C181.812 213.876 180.814 213.425 179.878 213.237C177.092 212.677 175.422 214.573 172.918 214.978H172.912Z" fill="#2870B2"/>
<path d="M177.763 210.422C177.763 210.422 177.735 210.416 177.718 210.41C175.789 210.37 173.86 210.062 171.908 210.091C170.696 210.108 169.472 210.205 168.254 210.365C168.101 210.616 168.039 210.953 168.101 211.404C168.186 212.037 168.694 211.781 168.761 212.237C168.784 212.397 168.248 212.968 168.192 213.242C168.135 213.528 168.022 214.201 167.994 214.812C169.63 215.035 171.271 215.241 172.912 214.972C175.417 214.567 177.092 212.677 179.872 213.231C180.814 213.419 181.807 213.865 182.715 214.259C182.715 213.374 182.709 212.483 182.726 211.598C182.732 211.29 182.822 210.976 182.856 210.69C182.077 210.644 181.305 210.627 180.526 210.599C179.59 210.57 178.682 210.599 177.757 210.422H177.763Z" fill="#5BBAAA"/>
<path d="M159.173 214.584C159.049 213.882 158.987 213.151 158.987 212.391V212.294C158.987 212.186 158.987 212.077 158.992 211.969C158.535 211.94 158.073 211.912 157.61 211.9C156.387 211.883 155.118 212.083 153.933 212.34C153.211 212.494 152.495 212.557 151.796 212.808C151.553 212.894 151.294 212.997 151.023 213.111C150.995 213.99 150.944 214.898 151.124 215.754C152.343 215.737 153.606 215.589 154.813 215.292C156.279 214.932 157.723 214.715 159.167 214.584H159.173Z" fill="#5BBAAA"/>
<path d="M156.296 222.292C157.701 222.098 158.784 221.127 160.12 220.933C160.803 220.836 161.479 221.002 162.139 221.036C162.54 221.053 162.935 221.064 163.329 221.059C163.177 220.967 163.025 220.87 162.867 220.773C162.562 220.591 162.19 220.488 161.948 220.219C161.88 220.145 161.547 219.357 161.592 219.357C161.271 219.34 160.994 219.129 160.752 218.826C160.453 218.826 160.154 218.843 159.861 218.866C159.009 218.94 158.248 218.792 157.503 218.592C155.856 219.146 154.255 219.614 152.562 219.888C153.008 220.739 153.442 221.567 153.939 222.366C154.734 222.389 155.529 222.4 156.291 222.298L156.296 222.292Z" fill="#008BAD"/>
<path d="M181.112 218.655C180.824 218.655 180.531 218.632 180.232 218.604C180.069 218.621 179.911 218.626 179.753 218.621C179.273 218.621 178.783 218.569 178.23 218.541C177.632 218.512 177.023 218.501 176.431 218.415C176.064 218.364 175.703 218.29 175.342 218.221C175.342 219.095 175.342 219.962 175.342 220.836C175.342 221.161 173.515 221.847 173.233 221.961C173.137 221.995 173.041 222.035 172.939 222.069C173.949 222.812 174.857 222.589 175.996 222.326C177.254 222.041 178.185 221.498 179.476 221.561C180.571 221.613 181.631 221.961 182.691 222.258C182.691 221.053 182.697 219.848 182.708 218.649C182.172 218.661 181.631 218.661 181.101 218.649L181.112 218.655Z" fill="#008BAD"/>
<path d="M178.056 213.939C177.622 214.099 177.21 214.321 176.759 214.441C175.777 214.698 174.756 214.818 173.764 215.052C172.399 215.372 170.853 215.183 169.449 215.183C168.958 215.183 168.473 215.161 167.988 215.121C167.988 215.463 168.039 215.76 168.163 215.897C169.207 217.079 172.173 216.251 173.657 216.251C174.542 216.091 175.45 215.897 176.217 215.537C178.276 214.584 180.549 214.704 182.72 215.258C182.72 215.001 182.72 214.738 182.72 214.481C181.744 214.024 180.662 213.887 179.579 213.865C179.026 213.853 178.592 213.739 178.061 213.933L178.056 213.939Z" fill="#A4D3BF"/>
<path d="M158.908 218.113C159.309 217.976 159.721 217.827 160.132 217.684C159.946 217.239 159.805 216.805 159.704 216.525C159.518 216.029 159.365 215.515 159.252 214.978C157.718 215.195 156.196 215.515 154.656 215.834C153.55 216.069 152.439 216.285 151.328 216.502C151.537 217.313 151.661 218.164 152.056 218.912C152.231 219.237 152.394 219.563 152.563 219.888C154.255 219.614 155.851 219.146 157.504 218.592C157.967 218.438 158.435 218.278 158.908 218.113Z" fill="#A4D3BF"/>
<path d="M176.217 215.538C175.45 215.892 174.542 216.091 173.656 216.251C173.713 216.251 173.769 216.251 173.82 216.251C174.914 216.303 175.354 216.44 175.343 217.57C175.343 217.787 175.343 218.004 175.343 218.221C175.704 218.29 176.065 218.364 176.431 218.415C177.023 218.501 177.633 218.512 178.23 218.541C178.777 218.564 179.268 218.621 179.753 218.621C179.917 218.621 180.075 218.621 180.233 218.604C180.532 218.632 180.825 218.649 181.112 218.655C181.643 218.666 182.178 218.666 182.72 218.655C182.726 218.004 182.731 217.353 182.731 216.702C182.731 216.223 182.731 215.743 182.731 215.263C180.56 214.71 178.281 214.59 176.228 215.543L176.217 215.538Z" fill="#5BBAAA"/>
<path d="M158.908 218.113C158.435 218.278 157.966 218.438 157.504 218.592C158.248 218.792 159.01 218.94 159.861 218.866C160.16 218.838 160.459 218.826 160.753 218.826C160.504 218.512 160.301 218.095 160.132 217.684C159.715 217.827 159.309 217.976 158.908 218.113Z" fill="#5BBAAA"/>
<path d="M160.752 218.826C160.454 218.826 160.155 218.843 159.861 218.866C160.16 218.838 160.459 218.826 160.752 218.826Z" fill="#5BBAAA"/>
<path d="M180.232 218.604C180.531 218.632 180.825 218.649 181.112 218.655C180.825 218.655 180.531 218.632 180.232 218.604Z" fill="#5BBAAA"/>
<path d="M197.396 204.118C197.661 203.987 197.92 203.867 198.157 203.759C199.093 203.342 200.092 202.856 201.112 202.714C202.466 202.525 203.763 203.119 204.976 203.696C205.484 203.593 205.991 203.467 206.493 203.325C208.208 202.828 209.55 202.982 211.146 203.473C212.359 203.216 213.566 203.113 214.846 203.216C215.472 203.268 216.081 203.365 216.69 203.484C216.369 202.953 216.019 202.445 215.641 201.954C213.47 201.931 211.327 201.863 209.206 201.606C208.394 201.606 207.576 201.629 206.719 201.726C205.822 201.823 204.97 201.874 204.062 201.874C203.504 201.874 203.024 201.806 202.562 201.703C202.319 201.703 202.077 201.686 201.84 201.635C199.945 201.201 198.202 200.264 196.341 199.722C194.48 199.179 193.617 199.905 191.789 200.47C190.791 200.784 189.804 200.841 188.828 200.761C188.264 201.378 187.745 202.029 187.277 202.725C190.323 202.799 193.498 203.793 196.544 204.061C196.826 204.084 197.114 204.107 197.396 204.124V204.118Z" fill="#5BBAAA"/>
<path d="M187.859 210.827C188.682 210.77 189.506 210.753 190.329 210.724C191.113 210.696 191.875 210.719 192.653 210.599C192.738 210.153 192.828 209.725 192.918 209.325C190.335 209.337 187.707 208.589 185.101 208.452C185.011 208.829 184.909 209.206 184.808 209.582C184.706 209.959 184.61 210.336 184.531 210.713C185.642 210.736 186.731 210.907 187.859 210.827Z" fill="#1C0912"/>
<path d="M211.869 210.433C211.733 210.49 211.592 210.547 211.44 210.604C211.344 210.639 211.248 210.673 211.152 210.701C211.231 210.981 211.288 211.278 211.327 211.598C211.417 211.586 211.508 211.569 211.604 211.558C213.093 211.375 214.514 210.724 215.986 210.582C216.967 210.49 218.039 210.513 219.043 210.696C219.026 210.41 218.998 210.125 218.958 209.839C218.118 209.674 217.272 209.514 216.426 209.365C214.497 209.029 213.645 209.697 211.874 210.427L211.869 210.433Z" fill="#1C0912"/>
<path d="M188.513 207.03C189.347 206.847 190.171 206.67 190.994 206.408C191.203 206.339 191.417 206.219 191.626 206.157C191.57 206.139 191.507 206.117 191.451 206.099C191.361 206.071 191.276 206.042 191.186 206.014C191 205.957 190.814 205.911 190.628 205.865C189.793 205.677 187.339 205.974 185.512 205.922C185.467 206.099 185.433 206.271 185.405 206.453C185.371 206.688 185.349 206.927 185.32 207.167C186.341 207.293 187.339 207.281 188.507 207.024L188.513 207.03Z" fill="#DD007F"/>
<path d="M211.439 210.604C211.591 210.547 211.732 210.49 211.867 210.433C211.568 210.33 211.264 210.239 210.965 210.148C211.033 210.325 211.095 210.513 211.151 210.701C211.247 210.667 211.348 210.639 211.439 210.604Z" fill="#E95B10"/>
<path d="M193.227 208.018C193.323 207.647 193.492 207.293 193.717 206.962C193.65 206.933 193.582 206.91 193.509 206.882C193.464 206.865 193.413 206.842 193.368 206.825C193.193 206.756 193.024 206.688 192.849 206.619C192.764 206.585 192.68 206.551 192.595 206.516C192.51 206.482 192.426 206.448 192.341 206.419C192.178 206.356 192.009 206.294 191.839 206.231C191.772 206.208 191.698 206.185 191.625 206.162C191.422 206.219 191.202 206.345 190.993 206.414C190.17 206.676 189.341 206.853 188.512 207.036C187.344 207.293 186.346 207.304 185.325 207.179C185.297 207.447 185.263 207.715 185.207 207.972C185.173 208.132 185.133 208.298 185.094 208.458C187.699 208.595 190.328 209.343 192.911 209.331C193.024 208.834 193.137 208.383 193.227 208.024V208.018Z" fill="#E95B10"/>
<path d="M209.922 208.258C210.35 208.897 210.711 209.491 210.965 210.148C211.27 210.239 211.569 210.33 211.867 210.433C213.644 209.702 214.49 209.034 216.419 209.371C217.271 209.52 218.111 209.679 218.951 209.845C218.867 209.206 218.737 208.577 218.574 207.955C217.575 207.938 216.577 207.955 215.601 207.932C213.622 207.887 211.845 207.944 209.916 208.258H209.922Z" fill="#456F88"/>
<path d="M211.151 203.467C210.683 203.564 210.215 203.69 209.741 203.833C208.653 204.164 207.666 204.364 206.656 204.501C207.717 205.06 208.066 205.483 208.957 206.836C209.301 207.356 209.629 207.818 209.922 208.258C211.851 207.944 213.627 207.887 215.607 207.932C216.583 207.955 217.581 207.932 218.579 207.955C218.495 207.63 218.399 207.304 218.297 206.979C218.207 206.71 218.117 206.442 218.015 206.185C216.233 205.397 214.44 204.644 212.618 203.97C212.099 203.776 211.614 203.61 211.151 203.467Z" fill="#DD007F"/>
<path d="M194.886 205.7C194.621 205.751 194.35 205.797 194.085 205.854C193.346 206.014 192.596 206.134 191.846 206.231C192.015 206.288 192.184 206.356 192.348 206.419C192.432 206.453 192.517 206.482 192.601 206.516C192.686 206.551 192.771 206.585 192.855 206.619C193.03 206.688 193.199 206.756 193.374 206.825C193.419 206.842 193.47 206.865 193.515 206.882C193.583 206.91 193.651 206.933 193.724 206.962C194.028 206.505 194.435 206.082 194.891 205.7H194.886Z" fill="#DD007F"/>
<path d="M211.152 203.467C211.615 203.61 212.094 203.776 212.619 203.97C214.441 204.644 216.234 205.397 218.016 206.185C217.655 205.232 217.21 204.335 216.697 203.479C216.087 203.365 215.478 203.262 214.852 203.21C213.578 203.102 212.365 203.21 211.152 203.467Z" fill="#F18C1C"/>
<path d="M206.658 204.501C207.661 204.364 208.654 204.164 209.743 203.833C210.216 203.69 210.685 203.57 211.153 203.467C209.557 202.976 208.214 202.828 206.5 203.319C205.998 203.462 205.49 203.587 204.982 203.69C205.214 203.804 205.445 203.913 205.676 204.015C206.065 204.192 206.387 204.347 206.663 204.489L206.658 204.501Z" fill="#F18C1C"/>
<path d="M190.633 205.871C190.819 205.911 191.006 205.962 191.192 206.02C191.282 206.048 191.367 206.077 191.457 206.105C191.519 206.122 191.575 206.139 191.637 206.162C191.711 206.185 191.778 206.208 191.852 206.237C192.602 206.139 193.352 206.02 194.091 205.86C194.361 205.803 194.627 205.751 194.892 205.706C195.659 205.066 196.572 204.529 197.401 204.118C197.114 204.101 196.832 204.078 196.55 204.055C193.51 203.787 190.329 202.794 187.283 202.719C187.159 202.902 187.029 203.079 186.917 203.262C186.488 203.947 186.031 204.695 185.698 205.426C185.625 205.591 185.569 205.757 185.523 205.928C187.351 205.98 189.804 205.683 190.639 205.871H190.633Z" fill="#F18C1C"/>
<path d="M191.451 206.105C191.507 206.122 191.569 206.145 191.626 206.162C191.569 206.139 191.507 206.122 191.445 206.105H191.451Z" fill="#F18C1C"/>
<path d="M191.625 206.162C191.698 206.185 191.772 206.208 191.839 206.231C191.772 206.208 191.698 206.179 191.625 206.157V206.162Z" fill="#F18C1C"/>
<path d="M194.383 224.61C194.643 224.553 194.902 224.496 195.162 224.427C194.71 224.302 194.265 224.142 193.842 223.942C192.296 223.211 191.868 221.835 190.04 222.389C189.194 222.646 188.563 222.909 187.965 223.108C188.078 223.251 188.19 223.394 188.309 223.531C188.422 223.662 188.54 223.794 188.659 223.925C190.305 224.051 191.969 224.182 193.588 224.467C193.864 224.519 194.129 224.57 194.383 224.61Z" fill="#009EB1"/>
<path d="M198.208 223.44C197.147 223.845 196.155 224.17 195.162 224.427C195.523 224.53 195.895 224.604 196.268 224.673H196.279C196.425 224.65 196.572 224.622 196.724 224.576C198.033 224.239 199.37 224.062 200.718 223.982C202.596 223.862 204.457 223.525 206.329 223.423C208.608 223.303 210.825 223.782 213.041 224.25C213.47 224.279 213.87 224.325 214.259 224.393C214.44 224.199 214.62 224.005 214.795 223.799C214.925 223.645 215.06 223.497 215.207 223.348C209.499 222.606 203.735 221.327 198.196 223.434L198.208 223.44Z" fill="#009EB1"/>
<path d="M191.789 200.464C193.616 199.893 194.474 199.174 196.341 199.716C198.202 200.259 199.945 201.195 201.84 201.629C202.076 201.68 202.313 201.703 202.562 201.697C203.024 201.794 203.503 201.869 204.062 201.869C204.97 201.869 205.822 201.817 206.718 201.72C207.576 201.623 208.393 201.6 209.206 201.6C211.321 201.857 213.464 201.92 215.641 201.949C215.472 201.732 215.303 201.52 215.122 201.315C215.049 201.229 214.975 201.144 214.896 201.058C211.625 200.995 208.213 201.395 205.128 200.219C204.067 199.813 202.962 199.414 201.896 199.048C201.23 198.82 200.514 198.734 199.792 198.711C197.987 198.643 196.324 198.557 194.564 198.865C193.65 199.031 192.832 199.237 191.953 199.339C191.389 199.408 190.813 199.448 190.255 199.556C190.165 199.573 190.046 199.608 189.922 199.642C189.55 199.979 189.2 200.338 188.862 200.71C188.85 200.721 188.839 200.738 188.822 200.75C189.798 200.835 190.785 200.772 191.783 200.458L191.789 200.464Z" fill="#675A9F"/>
<path d="M191.953 199.345C192.832 199.237 193.656 199.031 194.564 198.871C196.324 198.557 197.993 198.648 199.792 198.717C200.514 198.745 201.23 198.831 201.896 199.054C202.962 199.419 204.062 199.819 205.128 200.224C208.213 201.4 211.625 201.001 214.896 201.064C214.406 200.521 213.768 199.922 213.176 199.613C212.336 199.174 211.947 198.831 211.304 198.077C210.762 197.438 209.922 197.038 209.082 196.736C208.67 196.593 208.252 196.467 207.869 196.359C206.842 196.073 205.844 196.079 204.857 195.702C202.088 194.646 198.743 195.24 196.019 196.142C193.819 196.867 191.89 197.946 190.232 199.385C190.131 199.476 190.029 199.568 189.928 199.659C190.046 199.625 190.165 199.591 190.261 199.573C190.819 199.465 191.394 199.425 191.958 199.356L191.953 199.345Z" fill="#2870B2"/>
<path d="M219.036 210.696C218.038 210.513 216.96 210.49 215.979 210.582C214.507 210.724 213.086 211.375 211.597 211.558C211.501 211.569 211.411 211.581 211.32 211.598C211.332 211.712 211.343 211.826 211.349 211.946C211.45 211.946 211.546 211.94 211.647 211.935C212.792 211.918 213.971 212.106 215.071 212.346C215.742 212.494 216.408 212.551 217.062 212.785C217.615 212.98 218.263 213.282 218.906 213.505C218.974 213.151 219.013 212.791 219.042 212.431C219.087 211.855 219.081 211.278 219.042 210.707L219.036 210.696Z" fill="#00539C"/>
<path d="M212.877 221.601C211.574 221.418 210.559 220.516 209.318 220.339C208.686 220.248 208.055 220.402 207.44 220.436C207.259 220.448 207.085 220.453 206.904 220.459C206.797 220.562 206.69 220.659 206.594 220.756C205.071 222.246 202.928 222.383 200.937 221.847C199.437 221.441 198.5 221.607 197.57 221.259C197.508 221.31 197.446 221.356 197.384 221.401C196.447 222.092 195.601 221.881 194.535 221.641C193.362 221.373 192.499 220.87 191.298 220.927C189.871 220.996 188.495 221.613 187.107 221.869C187.373 222.292 187.649 222.709 187.959 223.108C188.557 222.914 189.189 222.646 190.035 222.389C191.862 221.835 192.291 223.211 193.836 223.942C194.259 224.142 194.705 224.302 195.156 224.427C196.148 224.17 197.141 223.845 198.201 223.44C203.74 221.333 209.504 222.606 215.212 223.354C215.675 222.88 216.176 222.423 216.498 221.858C216.537 221.784 216.577 221.71 216.616 221.635C216.56 221.635 216.504 221.635 216.447 221.635C215.274 221.635 214.028 221.761 212.866 221.601H212.877Z" fill="#A4D3BF"/>
<path d="M214.253 215.092C213.08 214.807 211.924 214.613 210.768 214.487C210.745 214.561 210.728 214.635 210.717 214.71C210.717 214.75 210.717 214.812 210.717 214.887C211.946 215.081 213.17 215.338 214.405 215.595C215.629 215.852 216.865 216.086 218.088 216.331C218.201 216.354 218.314 216.371 218.432 216.394C218.432 216.114 218.41 215.829 218.41 215.549C218.212 215.532 218.038 215.526 217.908 215.526C216.712 215.526 215.454 215.383 214.259 215.092H214.253Z" fill="#64C6EC"/>
<path d="M191.22 213.762C191.638 213.756 191.976 213.682 192.348 213.75C192.337 213.545 192.337 213.334 192.348 213.105C191.914 213.06 191.452 213.077 190.95 213.174C189.85 213.396 188.66 214.002 187.656 214.401C187.058 214.635 186.505 214.898 185.936 215.195C185.603 215.372 185.067 215.783 184.582 216.051C184.582 216.074 184.588 216.103 184.593 216.126C185.699 215.697 186.804 215.235 187.819 214.601C188.846 213.962 190.03 213.79 191.226 213.768L191.22 213.762Z" fill="#64C6EC"/>
<path d="M187.649 214.401C188.653 214.002 189.843 213.396 190.943 213.174C191.445 213.077 191.908 213.06 192.342 213.105C192.37 212.323 192.494 211.444 192.652 210.599C191.88 210.719 191.118 210.696 190.329 210.724C189.505 210.753 188.682 210.77 187.858 210.827C186.73 210.907 185.642 210.736 184.531 210.713C184.401 211.324 184.311 211.94 184.311 212.574C184.311 213.659 184.384 214.864 184.576 216.046C185.066 215.777 185.596 215.366 185.929 215.189C186.499 214.892 187.046 214.635 187.649 214.396V214.401Z" fill="#5BBAAA"/>
<path d="M215.071 212.34C213.971 212.1 212.792 211.912 211.647 211.929C211.546 211.929 211.45 211.929 211.349 211.94C211.371 212.277 211.371 212.637 211.349 213.031C211.309 213.579 210.914 214.007 210.768 214.481C211.924 214.607 213.08 214.801 214.253 215.086C215.449 215.378 216.701 215.52 217.902 215.52C218.032 215.52 218.201 215.532 218.404 215.543C218.404 215.275 218.404 215.007 218.449 214.738C218.511 214.333 218.799 214.03 218.878 213.642C218.889 213.596 218.895 213.545 218.901 213.499C218.258 213.277 217.609 212.98 217.056 212.78C216.408 212.546 215.736 212.489 215.065 212.34H215.071Z" fill="#5BBAAA"/>
<path d="M194.535 221.635C195.596 221.875 196.442 222.086 197.383 221.396C197.446 221.35 197.508 221.299 197.57 221.253C197.09 221.076 196.605 220.762 196.047 220.157C195.505 219.574 194.862 218.809 194.259 217.976C194.219 217.981 194.18 217.987 194.14 217.993C193.588 218.067 193.024 218.084 192.465 218.107C191.958 218.13 191.501 218.181 191.05 218.181C190.897 218.181 190.751 218.181 190.604 218.164C190.328 218.192 190.051 218.21 189.786 218.215C188.348 218.238 186.848 218.215 185.426 217.947C185.274 217.918 185.133 217.901 184.992 217.884C185.263 218.763 185.618 219.586 186.098 220.288C186.453 220.807 186.774 221.338 187.107 221.869C188.489 221.613 189.865 220.996 191.298 220.927C192.494 220.87 193.362 221.373 194.535 221.641V221.635Z" fill="#009EB1"/>
<path d="M209.561 218.415C209.42 218.404 209.273 218.398 209.126 218.392C208.382 219.146 207.542 219.86 206.904 220.453C207.079 220.453 207.26 220.442 207.44 220.431C208.061 220.402 208.687 220.242 209.318 220.334C210.559 220.511 211.569 221.418 212.877 221.595C214.039 221.755 215.285 221.63 216.459 221.63C216.509 221.63 216.571 221.63 216.628 221.63C216.944 221.036 217.22 220.379 217.508 219.774C217.547 219.688 217.581 219.603 217.62 219.523C215.562 219.329 213.695 218.803 211.755 218.152C211.067 218.335 210.356 218.478 209.561 218.409V218.415Z" fill="#009EB1"/>
<path d="M214.406 215.595C213.17 215.338 211.946 215.081 210.717 214.887C210.734 215.258 210.824 215.983 210.807 216.04C210.649 216.525 210.328 217.028 209.916 217.524C210.096 217.587 210.271 217.65 210.446 217.713C210.886 217.867 211.32 218.015 211.755 218.158C213.695 218.809 215.556 219.334 217.62 219.529C217.795 219.14 217.959 218.746 218.089 218.341C218.094 218.318 218.105 218.295 218.111 218.272C218.218 217.936 218.314 217.599 218.376 217.25C218.427 216.959 218.433 216.674 218.433 216.388C218.314 216.371 218.201 216.348 218.089 216.325C216.865 216.086 215.629 215.846 214.406 215.589V215.595Z" fill="#675A9F"/>
<path d="M188.043 215.121C189.51 214.721 191.038 214.527 192.505 214.761C192.493 214.715 192.476 214.675 192.465 214.635C192.397 214.384 192.358 214.076 192.347 213.75C191.974 213.688 191.636 213.75 191.219 213.762C190.023 213.785 188.839 213.956 187.812 214.595C186.797 215.229 185.697 215.692 184.586 216.12C184.62 216.308 184.654 216.502 184.693 216.691C184.699 216.731 184.71 216.771 184.721 216.816C185.15 216.611 185.584 216.303 185.821 216.166C186.537 215.743 187.231 215.343 188.043 215.126V215.121Z" fill="#675A9F"/>
<path d="M209.561 218.415C210.351 218.484 211.062 218.347 211.755 218.158C211.327 218.015 210.893 217.867 210.447 217.713C210.272 217.65 210.092 217.587 209.917 217.524C209.68 217.816 209.409 218.107 209.133 218.387C209.279 218.392 209.42 218.398 209.567 218.409L209.561 218.415Z" fill="#A4D3BF"/>
<path d="M189.787 218.215C190.053 218.215 190.329 218.192 190.605 218.164C190.758 218.175 190.904 218.181 191.051 218.181C191.502 218.181 191.953 218.13 192.467 218.107C193.025 218.084 193.589 218.067 194.142 217.993C194.181 217.993 194.221 217.981 194.26 217.976C193.499 216.925 192.811 215.772 192.506 214.761C191.04 214.527 189.517 214.721 188.045 215.121C187.227 215.343 186.539 215.737 185.822 216.16C185.586 216.297 185.151 216.605 184.723 216.811C184.802 217.176 184.892 217.53 184.993 217.878C185.134 217.896 185.275 217.913 185.428 217.941C186.849 218.21 188.349 218.232 189.787 218.21V218.215Z" fill="#A4D3BF"/>
<path d="M192.472 218.113C191.959 218.135 191.508 218.187 191.057 218.187C191.508 218.187 191.965 218.135 192.472 218.113Z" fill="#A4D3BF"/>
<path d="M189.787 218.215C190.052 218.215 190.329 218.192 190.605 218.164C190.329 218.192 190.052 218.21 189.787 218.215Z" fill="#A4D3BF"/>
<path d="M193.719 206.962C193.815 207.002 193.916 207.036 194.012 207.076C193.916 207.042 193.815 207.002 193.719 206.962Z" fill="white"/>
<path d="M194.033 207.082C194.033 207.082 194.046 207.082 194.052 207.088C194.046 207.088 194.039 207.088 194.033 207.082Z" fill="white"/>
<path d="M194.012 207.076C194.012 207.076 194.029 207.082 194.035 207.088C194.029 207.088 194.017 207.082 194.006 207.076H194.012Z" fill="white"/>
<path d="M196.432 224.696C196.381 224.69 196.336 224.679 196.285 224.673C196.336 224.684 196.387 224.69 196.432 224.696Z" fill="#008BAD"/>
<path d="M206.34 223.428C204.468 223.531 202.601 223.868 200.728 223.988C199.375 224.073 198.044 224.245 196.735 224.582C196.577 224.622 196.43 224.65 196.289 224.679C196.34 224.684 196.385 224.696 196.436 224.701C196.555 224.719 196.673 224.741 196.791 224.753C196.961 224.776 197.13 224.793 197.299 224.816C197.13 224.799 196.961 224.776 196.791 224.753C196.673 224.736 196.555 224.719 196.436 224.701C196.385 224.696 196.335 224.69 196.289 224.679C195.613 224.787 195.026 224.724 194.389 224.616C194.135 224.57 193.87 224.524 193.594 224.473C191.975 224.182 190.305 224.056 188.664 223.931C189.042 224.342 189.442 224.73 189.86 225.101C190.288 225.484 190.745 225.849 191.219 226.192C194.169 226.534 197.299 226.072 200.119 225.683C202.629 225.341 205.088 225.341 207.564 226.032C208.641 226.334 209.747 226.768 210.869 227.157C210.875 227.157 210.88 227.151 210.886 227.145C212.138 226.397 213.283 225.484 214.287 224.405C213.898 224.336 213.492 224.29 213.069 224.262C210.852 223.794 208.63 223.308 206.357 223.434L206.34 223.428Z" fill="#008BAD"/>
<path d="M196.278 224.673C196.278 224.673 196.272 224.673 196.267 224.673C195.894 224.61 195.522 224.53 195.161 224.427C194.902 224.49 194.642 224.553 194.383 224.61C195.02 224.719 195.607 224.781 196.284 224.673H196.278Z" fill="#008BAD"/>
<path d="M200.103 225.672C197.283 226.06 194.153 226.523 191.203 226.18C191.62 226.483 192.055 226.774 192.506 227.042C192.827 227.237 193.155 227.419 193.493 227.596C195.535 228.658 197.819 229.292 200.334 229.498C202.85 229.697 205.207 229.435 207.407 228.704C208.62 228.304 209.77 227.779 210.848 227.139C209.725 226.751 208.62 226.317 207.542 226.015C205.066 225.324 202.607 225.324 200.098 225.666L200.103 225.672Z" fill="#003956"/>
<path d="M182.71 223.445C182.704 223.051 182.704 222.657 182.704 222.263C181.644 221.967 180.584 221.618 179.49 221.567C178.204 221.504 177.273 222.046 176.01 222.332C174.87 222.589 173.962 222.817 172.953 222.075C172.208 222.338 171.435 222.515 170.657 222.623C168.79 222.874 167.296 222.498 165.491 222.081C164.662 221.887 164.013 221.498 163.336 221.076C162.941 221.076 162.541 221.07 162.146 221.053C161.481 221.019 160.804 220.853 160.127 220.95C158.79 221.144 157.707 222.115 156.303 222.309C155.542 222.412 154.746 222.406 153.951 222.378C154.301 222.937 154.684 223.485 155.113 224.011C160.635 223.234 166.19 222.246 171.56 224.096C172.039 224.25 172.558 224.159 173.037 224.279C173.336 224.353 173.624 224.462 173.934 224.502C174.278 224.547 174.633 224.519 174.977 224.553C175.682 224.622 176.444 224.656 177.132 224.49C177.256 224.462 177.391 224.427 177.515 224.376C178.627 223.594 179.219 222.652 180.854 223.148C181.593 223.371 182.174 223.599 182.71 223.794C182.71 223.691 182.716 223.582 182.71 223.457V223.445Z" fill="#2870B2"/>
<path d="M180.843 223.143C179.207 222.646 178.609 223.588 177.504 224.37C177.38 224.422 177.25 224.456 177.12 224.484C176.432 224.65 175.671 224.616 174.966 224.547C174.622 224.513 174.267 224.542 173.923 224.496C173.612 224.456 173.325 224.347 173.026 224.273C172.546 224.153 172.022 224.245 171.548 224.091C171.717 224.148 171.886 224.21 172.056 224.279C166.534 222.172 160.798 223.206 155.102 224.005C155.35 224.307 155.615 224.604 155.902 224.89C155.987 224.976 156.072 225.055 156.156 225.135C157.177 224.924 158.198 224.701 159.224 224.536C159.224 224.536 159.23 224.536 159.236 224.536C159.287 224.53 159.343 224.519 159.394 224.513C159.591 224.484 159.788 224.456 159.986 224.427C160.104 224.41 160.223 224.399 160.341 224.382C160.572 224.353 160.804 224.33 161.035 224.307C161.469 224.268 161.898 224.25 162.332 224.245C162.355 224.245 162.377 224.245 162.394 224.245C162.699 224.245 163.003 224.245 163.308 224.262C165.321 224.37 167.324 224.736 169.343 224.861C170.798 224.953 172.231 225.135 173.641 225.501C173.81 225.546 173.968 225.575 174.126 225.604H174.137C174.137 225.604 174.131 225.604 174.126 225.604C174.193 225.615 174.261 225.621 174.329 225.632C174.368 225.638 174.413 225.644 174.453 225.644H174.464C175.056 225.695 175.592 225.632 176.173 225.535C176.258 225.518 176.342 225.506 176.432 225.489C176.624 225.455 176.822 225.421 177.03 225.381C178.75 225.073 180.521 224.941 182.27 224.799C182.552 224.536 182.676 224.296 182.699 223.788C182.163 223.594 181.576 223.365 180.843 223.143Z" fill="#00539C"/>
<path d="M236.599 215.201C235.46 215.201 234.427 215.012 233.491 214.635C232.555 214.253 231.748 213.728 231.077 213.054C230.406 212.38 229.882 211.581 229.509 210.656C229.137 209.731 228.945 208.72 228.945 207.624V207.578C228.945 206.528 229.137 205.54 229.521 204.621C229.898 203.701 230.434 202.896 231.111 202.2C231.788 201.503 232.594 200.955 233.525 200.555C234.456 200.156 235.471 199.956 236.582 199.956C237.236 199.956 237.828 200.002 238.359 200.093C238.894 200.184 239.391 200.316 239.848 200.481C240.304 200.647 240.733 200.858 241.139 201.115C241.54 201.366 241.929 201.657 242.307 201.977L240.288 204.438C240.011 204.198 239.735 203.987 239.458 203.81C239.182 203.627 238.894 203.473 238.596 203.347C238.297 203.222 237.975 203.125 237.625 203.051C237.281 202.982 236.898 202.948 236.48 202.948C235.9 202.948 235.352 203.068 234.85 203.313C234.343 203.559 233.903 203.89 233.519 204.301C233.136 204.712 232.843 205.197 232.623 205.751C232.408 206.305 232.301 206.899 232.301 207.533V207.573C232.301 208.246 232.408 208.869 232.623 209.434C232.837 210.005 233.142 210.496 233.536 210.918C233.931 211.341 234.394 211.666 234.929 211.895C235.465 212.129 236.057 212.243 236.706 212.243C237.896 212.243 238.906 211.946 239.724 211.358V209.251H236.503V206.454H242.826V212.854C242.075 213.499 241.184 214.053 240.152 214.504C239.12 214.961 237.936 215.189 236.605 215.189L236.599 215.201Z" fill="#003956"/>
<path d="M249.222 200.104H252.178L258.416 214.949H255.065L253.734 211.644H247.581L246.25 214.949H242.984L249.222 200.104ZM252.589 208.777L250.655 203.998L248.72 208.777H252.589Z" fill="#003956"/>
<path d="M259.414 200.207H262.618V211.998H269.876V214.944H259.414V200.207Z" fill="#003956"/>
<path d="M276.447 200.104H279.402L285.64 214.949H282.29L280.959 211.644H274.8L273.469 214.949H270.203L276.441 200.104H276.447ZM279.814 208.777L277.879 203.998L275.945 208.777H279.814Z" fill="#003956"/>
<path d="M286.221 200.207H292.171C293.045 200.207 293.824 200.327 294.512 200.573C295.2 200.818 295.781 201.166 296.26 201.617C296.739 202.069 297.106 202.605 297.366 203.228C297.619 203.85 297.749 204.541 297.749 205.3V205.346C297.749 206.202 297.597 206.95 297.292 207.601C296.988 208.246 296.565 208.789 296.034 209.223C295.499 209.657 294.878 209.982 294.162 210.199C293.446 210.416 292.684 210.524 291.866 210.524H289.436V214.944H286.232V200.207H286.221ZM291.962 207.641C292.769 207.641 293.389 207.43 293.835 207.002C294.28 206.573 294.5 206.048 294.5 205.42V205.374C294.5 204.649 294.269 204.095 293.801 203.719C293.339 203.342 292.701 203.153 291.9 203.153H289.424V207.635H291.962V207.641Z" fill="#003956"/>
<path d="M302.193 200.104H305.148L311.386 214.949H308.036L306.705 211.644H300.552L299.221 214.949H295.955L302.193 200.104ZM305.56 208.777L303.626 203.998L301.691 208.777H305.56Z" fill="#003956"/>
<path d="M318.562 215.201C317.422 215.201 316.39 215.012 315.454 214.635C314.518 214.253 313.711 213.728 313.04 213.054C312.369 212.38 311.844 211.581 311.466 210.656C311.088 209.731 310.902 208.72 310.902 207.624V207.578C310.902 206.528 311.094 205.54 311.472 204.621C311.856 203.701 312.386 202.896 313.062 202.2C313.739 201.503 314.546 200.955 315.476 200.555C316.407 200.156 317.428 199.956 318.533 199.956C319.188 199.956 319.78 200.002 320.31 200.093C320.846 200.184 321.342 200.316 321.799 200.481C322.256 200.647 322.684 200.858 323.091 201.115C323.491 201.366 323.88 201.657 324.258 201.977L322.239 204.438C321.963 204.198 321.686 203.987 321.41 203.81C321.133 203.627 320.846 203.473 320.547 203.347C320.248 203.222 319.926 203.125 319.582 203.051C319.233 202.982 318.855 202.948 318.438 202.948C317.857 202.948 317.309 203.068 316.808 203.313C316.3 203.559 315.86 203.89 315.476 204.301C315.093 204.712 314.794 205.197 314.58 205.751C314.365 206.305 314.258 206.899 314.258 207.533V207.573C314.258 208.246 314.365 208.869 314.58 209.434C314.794 210.005 315.099 210.496 315.493 210.918C315.888 211.341 316.351 211.666 316.886 211.895C317.422 212.129 318.014 212.243 318.663 212.243C319.859 212.243 320.863 211.946 321.681 211.358V209.251H318.46V206.454H324.783V212.854C324.032 213.499 323.141 214.053 322.109 214.504C321.077 214.961 319.893 215.189 318.562 215.189V215.201Z" fill="#003956"/>
<path d="M347.676 215.161C346.565 215.161 345.476 214.967 344.41 214.584C343.344 214.196 342.374 213.602 341.5 212.803L343.395 210.507C344.061 211.055 344.743 211.489 345.442 211.815C346.142 212.14 346.909 212.3 347.744 212.3C348.409 212.3 348.928 212.175 349.295 211.929C349.661 211.684 349.847 211.341 349.847 210.907V210.867C349.847 210.656 349.808 210.473 349.735 210.308C349.656 210.148 349.515 209.993 349.295 209.856C349.08 209.714 348.781 209.577 348.398 209.434C348.02 209.291 347.524 209.148 346.909 208.994C346.176 208.812 345.51 208.606 344.912 208.383C344.314 208.161 343.812 207.881 343.395 207.55C342.978 207.219 342.656 206.808 342.431 206.316C342.199 205.825 342.087 205.215 342.087 204.484V204.444C342.087 203.77 342.211 203.165 342.459 202.622C342.707 202.08 343.057 201.617 343.502 201.224C343.948 200.83 344.484 200.527 345.104 200.321C345.724 200.11 346.413 200.007 347.157 200.007C348.223 200.007 349.204 200.167 350.101 200.493C350.992 200.818 351.816 201.281 352.566 201.88L350.902 204.324C350.248 203.873 349.61 203.519 348.99 203.262C348.364 202.999 347.744 202.874 347.118 202.874C346.491 202.874 346.023 202.999 345.713 203.239C345.403 203.485 345.245 203.793 345.245 204.153V204.193C345.245 204.432 345.29 204.638 345.38 204.815C345.471 204.992 345.634 205.152 345.871 205.289C346.108 205.431 346.429 205.563 346.841 205.688C347.247 205.814 347.766 205.962 348.392 206.128C349.125 206.328 349.78 206.545 350.355 206.79C350.93 207.036 351.415 207.333 351.81 207.675C352.205 208.018 352.504 208.423 352.701 208.886C352.904 209.348 353.006 209.902 353.006 210.547V210.587C353.006 211.318 352.876 211.969 352.611 212.534C352.352 213.105 351.985 213.579 351.517 213.967C351.049 214.356 350.49 214.647 349.842 214.852C349.193 215.058 348.471 215.161 347.682 215.161H347.676Z" fill="#003956"/>
<path d="M333.508 215.024C332.402 215.024 331.387 214.83 330.462 214.436C329.537 214.042 328.736 213.511 328.059 212.843C327.383 212.175 326.858 211.387 326.486 210.484C326.108 209.582 325.922 208.612 325.922 207.578V207.538C325.922 206.505 326.114 205.534 326.497 204.632C326.881 203.73 327.405 202.936 328.082 202.251C328.759 201.566 329.56 201.029 330.496 200.635C331.427 200.241 332.447 200.047 333.553 200.047C334.658 200.047 335.674 200.241 336.599 200.635C337.524 201.029 338.324 201.56 339.001 202.228C339.678 202.896 340.203 203.684 340.575 204.586C340.947 205.489 341.139 206.459 341.139 207.493V207.533C341.139 208.566 340.947 209.537 340.569 210.439C340.186 211.341 339.661 212.135 338.984 212.82C338.308 213.505 337.507 214.042 336.57 214.436C335.634 214.83 334.619 215.024 333.513 215.024H333.508ZM333.547 212.083C334.173 212.083 334.754 211.963 335.284 211.729C335.815 211.495 336.271 211.17 336.644 210.759C337.016 210.342 337.309 209.868 337.524 209.32C337.732 208.777 337.839 208.189 337.839 207.573V207.533C337.839 206.91 337.732 206.328 337.524 205.774C337.309 205.22 337.01 204.741 336.621 204.324C336.232 203.913 335.775 203.582 335.239 203.342C334.709 203.102 334.128 202.982 333.502 202.982C332.876 202.982 332.278 203.102 331.754 203.336C331.229 203.57 330.778 203.896 330.406 204.307C330.033 204.723 329.74 205.197 329.526 205.746C329.317 206.288 329.21 206.876 329.21 207.493V207.533C329.21 208.155 329.317 208.743 329.526 209.291C329.735 209.845 330.039 210.325 330.423 210.741C330.812 211.158 331.269 211.484 331.793 211.723C332.318 211.963 332.899 212.083 333.542 212.083H333.547Z" fill="#003956"/>
<path d="M230.902 219.637H234.698V220.185H231.495V222.001H234.36V222.549H231.495V224.41H234.738V224.958H230.902V219.643V219.637Z" fill="#003956"/>
<path d="M251.985 225.044C251.608 225.044 251.258 224.976 250.936 224.833C250.615 224.69 250.339 224.496 250.102 224.25C249.865 224.005 249.684 223.714 249.549 223.383C249.414 223.046 249.352 222.692 249.352 222.309V222.292C249.352 221.915 249.419 221.561 249.549 221.23C249.679 220.893 249.865 220.602 250.102 220.351C250.339 220.1 250.615 219.9 250.942 219.757C251.269 219.614 251.625 219.54 252.008 219.54C252.251 219.54 252.465 219.563 252.657 219.603C252.848 219.643 253.029 219.7 253.192 219.774C253.356 219.848 253.508 219.934 253.649 220.042C253.79 220.145 253.926 220.259 254.055 220.385L253.649 220.825C253.424 220.613 253.181 220.436 252.927 220.299C252.668 220.162 252.363 220.094 252.002 220.094C251.715 220.094 251.444 220.151 251.196 220.259C250.948 220.374 250.733 220.528 250.553 220.722C250.372 220.922 250.226 221.15 250.124 221.418C250.023 221.687 249.972 221.972 249.972 222.275V222.292C249.972 222.6 250.023 222.886 250.124 223.154C250.226 223.423 250.367 223.651 250.553 223.851C250.733 224.051 250.953 224.205 251.196 224.319C251.444 224.433 251.715 224.49 252.002 224.49C252.363 224.49 252.674 224.422 252.933 224.29C253.192 224.153 253.446 223.965 253.7 223.725L254.089 224.113C253.954 224.256 253.813 224.382 253.666 224.496C253.52 224.61 253.362 224.707 253.192 224.787C253.023 224.867 252.837 224.93 252.645 224.976C252.454 225.021 252.234 225.044 251.991 225.044H251.985Z" fill="#003956"/>
<path d="M270.886 225.038C270.559 225.038 270.265 224.987 269.995 224.89C269.73 224.793 269.498 224.644 269.307 224.45C269.115 224.256 268.963 224.011 268.861 223.725C268.754 223.434 268.703 223.103 268.703 222.732V219.637H269.295V222.692C269.295 223.268 269.436 223.714 269.724 224.022C270.012 224.33 270.401 224.485 270.903 224.485C271.405 224.485 271.771 224.336 272.059 224.045C272.347 223.748 272.488 223.314 272.488 222.732V219.637H273.08V222.686C273.08 223.074 273.029 223.417 272.922 223.714C272.815 224.005 272.668 224.25 272.476 224.45C272.285 224.65 272.053 224.793 271.788 224.896C271.523 224.993 271.224 225.044 270.891 225.044L270.886 225.038Z" fill="#003956"/>
<path d="M290.079 219.597H290.632L293.029 224.953H292.391L291.777 223.548H288.917L288.297 224.953H287.688L290.079 219.597ZM291.54 223L290.344 220.294L289.143 223H291.54Z" fill="#003956"/>
<path d="M307.721 219.637H309.542C309.954 219.637 310.332 219.706 310.67 219.837C311.015 219.968 311.308 220.157 311.556 220.396C311.804 220.636 311.996 220.916 312.131 221.236C312.267 221.555 312.334 221.904 312.334 222.281V222.298C312.334 222.675 312.267 223.023 312.131 223.348C311.996 223.674 311.804 223.954 311.556 224.193C311.308 224.433 311.015 224.616 310.67 224.753C310.326 224.89 309.949 224.958 309.542 224.958H307.721V219.643V219.637ZM308.313 220.191V224.399H309.542C309.875 224.399 310.174 224.347 310.445 224.239C310.716 224.131 310.941 223.988 311.133 223.799C311.319 223.611 311.466 223.388 311.567 223.131C311.669 222.874 311.72 222.6 311.72 222.309V222.292C311.72 222.001 311.669 221.721 311.567 221.47C311.466 221.213 311.319 220.99 311.133 220.802C310.947 220.613 310.716 220.465 310.445 220.351C310.174 220.242 309.875 220.185 309.542 220.185H308.313V220.191Z" fill="#003956"/>
<path d="M329.689 225.044C329.289 225.044 328.928 224.97 328.595 224.821C328.268 224.673 327.986 224.473 327.749 224.228C327.512 223.976 327.331 223.685 327.207 223.354C327.078 223.023 327.016 222.675 327.016 222.309V222.292C327.016 221.927 327.083 221.578 327.213 221.241C327.343 220.905 327.523 220.613 327.76 220.362C327.997 220.111 328.279 219.911 328.606 219.763C328.933 219.614 329.3 219.54 329.7 219.54C330.101 219.54 330.462 219.614 330.789 219.763C331.116 219.911 331.398 220.111 331.635 220.356C331.872 220.608 332.052 220.899 332.176 221.23C332.306 221.561 332.368 221.909 332.368 222.275V222.292C332.368 222.657 332.3 223.006 332.176 223.343C332.047 223.674 331.86 223.971 331.629 224.222C331.392 224.473 331.11 224.673 330.783 224.821C330.456 224.97 330.089 225.044 329.689 225.044ZM329.706 224.49C330.005 224.49 330.281 224.433 330.535 224.319C330.789 224.205 331.003 224.051 331.184 223.851C331.364 223.651 331.505 223.423 331.607 223.16C331.708 222.897 331.759 222.612 331.759 222.309V222.292C331.759 221.989 331.708 221.704 331.607 221.436C331.505 221.167 331.359 220.939 331.178 220.739C330.992 220.539 330.772 220.385 330.524 220.265C330.27 220.151 329.994 220.088 329.695 220.088C329.396 220.088 329.119 220.145 328.866 220.259C328.612 220.374 328.397 220.528 328.217 220.728C328.036 220.927 327.895 221.156 327.794 221.418C327.692 221.681 327.642 221.967 327.642 222.269V222.286C327.642 222.589 327.692 222.874 327.794 223.143C327.895 223.411 328.042 223.639 328.223 223.839C328.409 224.039 328.629 224.193 328.877 224.308C329.131 224.422 329.407 224.485 329.706 224.485V224.49Z" fill="#003956"/>
<path d="M347.285 219.637H349.541C349.868 219.637 350.156 219.683 350.404 219.78C350.658 219.871 350.867 220.002 351.03 220.174C351.16 220.305 351.261 220.459 351.329 220.636C351.397 220.813 351.436 221.007 351.436 221.219V221.236C351.436 221.458 351.402 221.658 351.329 221.83C351.261 222.007 351.16 222.155 351.036 222.286C350.906 222.418 350.759 222.52 350.585 222.606C350.41 222.692 350.218 222.749 350.015 222.783L351.628 224.958H350.9L349.378 222.892H347.877V224.958H347.285V219.643V219.637ZM349.49 222.349C349.688 222.349 349.863 222.326 350.032 222.275C350.195 222.224 350.336 222.149 350.461 222.058C350.579 221.967 350.675 221.852 350.743 221.715C350.81 221.578 350.844 221.43 350.844 221.253V221.236C350.844 220.905 350.726 220.648 350.489 220.465C350.252 220.282 349.925 220.185 349.496 220.185H347.877V222.343H349.49V222.349Z" fill="#003956"/>
</g>
<rect x="1" y="103" width="10.2122" height="64" fill="#1C0912"/>
<rect x="88.2676" y="103" width="10.2122" height="64" fill="#1C0912"/>
<rect x="177.393" y="103" width="10.2122" height="64" fill="#1C0912"/>
<rect x="265.59" y="103" width="10.2122" height="64" fill="#1C0912"/>
<rect x="25.1387" y="103" width="5.57029" height="64" fill="#1C0912"/>
<rect x="112.406" y="103" width="5.57029" height="64" fill="#1C0912"/>
<rect x="201.531" y="103" width="5.57029" height="64" fill="#1C0912"/>
<rect x="289.727" y="103" width="5.57029" height="64" fill="#1C0912"/>
<rect x="16.7832" y="103" width="2.78515" height="64" fill="#1C0912"/>
<rect x="104.051" y="103" width="2.78515" height="64" fill="#1C0912"/>
<rect x="193.176" y="103" width="2.78515" height="64" fill="#1C0912"/>
<rect x="281.371" y="103" width="6.49867" height="64" fill="#1C0912"/>
<rect x="33.4941" y="103" width="1.85676" height="64" fill="#1C0912"/>
<rect x="120.762" y="103" width="1.85676" height="64" fill="#1C0912"/>
<rect x="209.887" y="103" width="1.85676" height="64" fill="#1C0912"/>
<rect x="298.082" y="103" width="1.85676" height="64" fill="#1C0912"/>
<rect x="37.207" y="103" width="10.2122" height="64" fill="#1C0912"/>
<rect x="124.475" y="103" width="10.2122" height="64" fill="#1C0912"/>
<rect x="213.6" y="103" width="10.2122" height="64" fill="#1C0912"/>
<rect x="301.795" y="103" width="10.2122" height="64" fill="#1C0912"/>
<rect x="73.4141" y="103" width="5.57029" height="64" fill="#1C0912"/>
<rect x="160.682" y="103" width="5.57029" height="64" fill="#1C0912"/>
<rect x="249.807" y="103" width="5.57029" height="64" fill="#1C0912"/>
<rect x="338.002" y="103" width="5.57029" height="64" fill="#1C0912"/>
<rect x="82.6973" y="103" width="3.71353" height="64" fill="#1C0912"/>
<rect x="169.965" y="103" width="3.71353" height="64" fill="#1C0912"/>
<rect x="259.09" y="103" width="3.71353" height="64" fill="#1C0912"/>
<rect x="347.287" y="103" width="3.71353" height="64" fill="#1C0912"/>
<rect x="61.3457" y="103" width="5.57029" height="64" fill="#1C0912"/>
<rect x="148.613" y="103" width="5.57029" height="64" fill="#1C0912"/>
<rect x="237.738" y="103" width="5.57029" height="64" fill="#1C0912"/>
<rect x="325.934" y="103" width="5.57029" height="64" fill="#1C0912"/>
<rect x="52.9902" y="103" width="2.78515" height="64" fill="#1C0912"/>
<rect x="140.258" y="103" width="2.78515" height="64" fill="#1C0912"/>
<rect x="229.383" y="103" width="2.78515" height="64" fill="#1C0912"/>
<rect x="317.578" y="103" width="2.78515" height="64" fill="#1C0912"/>
<rect x="69.7012" y="103" width="1.85676" height="64" fill="#1C0912"/>
<rect x="156.969" y="103" width="1.85676" height="64" fill="#1C0912"/>
<rect x="246.094" y="103" width="1.85676" height="64" fill="#1C0912"/>
<rect x="334.289" y="103" width="1.85676" height="64" fill="#1C0912"/>
<defs>
<clipPath id="clip0_664_23332">
<rect width="202" height="35" fill="white" transform="translate(151 195)"/>
</clipPath>
</defs>
</svg>
