<svg width="245" height="41" viewBox="0 0 245 41" fill="none" xmlns="http://www.w3.org/2000/svg">
<g clip-path="url(#clip0_664_24230)">
<path d="M107.398 23.636C106.051 23.636 104.831 23.4172 103.725 22.9796C102.618 22.5354 101.664 21.9255 100.871 21.1431C100.077 20.3608 99.4574 19.4326 99.0173 18.3585C98.5773 17.2845 98.3506 16.1109 98.3506 14.838V14.7849C98.3506 13.565 98.5773 12.418 99.0307 11.3506C99.4774 10.2832 100.111 9.34833 100.911 8.53946C101.711 7.7306 102.664 7.09412 103.765 6.63002C104.865 6.16592 106.065 5.93387 107.378 5.93387C108.152 5.93387 108.852 5.98691 109.478 6.09299C110.112 6.19907 110.699 6.35156 111.239 6.54383C111.779 6.7361 112.285 6.98141 112.765 7.27976C113.239 7.57148 113.699 7.90961 114.146 8.28089L111.759 11.1384C111.432 10.86 111.105 10.6147 110.779 10.4025C110.452 10.1903 110.112 10.0113 109.758 9.86547C109.405 9.71961 109.025 9.6069 108.612 9.52071C108.205 9.44115 107.752 9.40137 107.258 9.40137C106.571 9.40137 105.925 9.5406 105.331 9.82569C104.731 10.1108 104.211 10.4953 103.758 10.9727C103.304 11.45 102.958 12.0136 102.704 12.6567C102.451 13.2998 102.324 13.9893 102.324 14.7253V14.7717C102.324 15.554 102.451 16.2767 102.704 16.9331C102.958 17.5961 103.318 18.1662 103.785 18.6569C104.251 19.1475 104.798 19.5254 105.431 19.7906C106.065 20.0624 106.765 20.195 107.532 20.195C108.938 20.195 110.132 19.8503 111.099 19.1674V16.7209H107.292V13.4722H114.766V20.9044C113.879 21.6536 112.825 22.2967 111.605 22.8205C110.385 23.3509 108.985 23.6161 107.412 23.6161L107.398 23.636Z" fill="white"/>
<path d="M122.32 6.10626H125.814L133.188 23.3443H129.227L127.654 19.5055H120.38L118.806 23.3443H114.946L122.32 6.10626ZM126.3 16.1773L124.013 10.6279L121.727 16.1773H126.3Z" fill="white"/>
<path d="M134.368 6.22559H138.155V19.9166H146.736V23.3377H134.368V6.22559Z" fill="white"/>
<path d="M154.503 6.10626H157.997L165.371 23.3443H161.411L159.837 19.5055H152.556L150.983 23.3443H147.123L154.497 6.10626H154.503ZM158.484 16.1773L156.197 10.6279L153.91 16.1773H158.484Z" fill="white"/>
<path d="M166.058 6.22559H173.092C174.125 6.22559 175.046 6.36482 175.859 6.64991C176.672 6.935 177.359 7.33943 177.926 7.8632C178.493 8.38697 178.926 9.01019 179.233 9.73286C179.533 10.4555 179.686 11.2578 179.686 12.1396V12.1926C179.686 13.1871 179.506 14.0556 179.146 14.8115C178.786 15.5606 178.286 16.1905 177.659 16.6944C177.026 17.1983 176.292 17.5762 175.446 17.8281C174.599 18.08 173.699 18.206 172.732 18.206H169.858V23.3377H166.071V6.22559H166.058ZM172.845 14.8579C173.799 14.8579 174.532 14.6126 175.059 14.1153C175.586 13.6181 175.846 13.0081 175.846 12.2788V12.2257C175.846 11.3837 175.572 10.7406 175.019 10.303C174.472 9.86546 173.719 9.64667 172.772 9.64667H169.845V14.8512H172.845V14.8579Z" fill="white"/>
<path d="M184.94 6.10626H188.434L195.808 23.3443H191.847L190.274 19.5055H183L181.426 23.3443H177.566L184.94 6.10626ZM188.92 16.1773L186.634 10.6279L184.347 16.1773H188.92Z" fill="white"/>
<path d="M204.289 23.636C202.942 23.636 201.722 23.4172 200.615 22.9796C199.508 22.5354 198.555 21.9255 197.761 21.1431C196.968 20.3608 196.348 19.4326 195.901 18.3585C195.454 17.2845 195.234 16.1109 195.234 14.838V14.7849C195.234 13.565 195.461 12.418 195.908 11.3506C196.361 10.2832 196.988 9.34833 197.788 8.53946C198.588 7.7306 199.542 7.09412 200.642 6.63002C201.742 6.16592 202.949 5.93387 204.255 5.93387C205.029 5.93387 205.729 5.98691 206.356 6.09299C206.989 6.19907 207.576 6.35156 208.116 6.54383C208.656 6.7361 209.163 6.98141 209.643 7.27976C210.116 7.57148 210.576 7.90961 211.023 8.28089L208.636 11.1384C208.309 10.86 207.982 10.6147 207.656 10.4025C207.329 10.1903 206.989 10.0113 206.636 9.86547C206.282 9.71961 205.902 9.6069 205.495 9.52071C205.082 9.44115 204.635 9.40137 204.142 9.40137C203.455 9.40137 202.809 9.5406 202.215 9.82569C201.615 10.1108 201.095 10.4953 200.642 10.9727C200.188 11.45 199.835 12.0136 199.582 12.6567C199.328 13.2998 199.201 13.9893 199.201 14.7253V14.7717C199.201 15.554 199.328 16.2767 199.582 16.9331C199.835 17.5961 200.195 18.1662 200.662 18.6569C201.128 19.1475 201.675 19.5254 202.308 19.7906C202.942 20.0624 203.642 20.195 204.409 20.195C205.822 20.195 207.009 19.8503 207.976 19.1674V16.7209H204.169V13.4722H211.643V20.9044C210.756 21.6536 209.703 22.2967 208.482 22.8205C207.262 23.3509 205.862 23.6161 204.289 23.6161V23.636Z" fill="white"/>
<path d="M238.706 23.583C237.392 23.583 236.106 23.3575 234.845 22.9133C233.585 22.4625 232.438 21.773 231.405 20.8448L233.645 18.1795C234.432 18.816 235.239 19.3199 236.066 19.6978C236.892 20.0757 237.799 20.2613 238.786 20.2613C239.573 20.2613 240.186 20.1155 240.619 19.8304C241.053 19.5453 241.273 19.1475 241.273 18.6436V18.5972C241.273 18.3519 241.226 18.1397 241.139 17.9475C241.046 17.7618 240.879 17.5828 240.619 17.4237C240.366 17.2579 240.013 17.0988 239.559 16.9331C239.113 16.7673 238.526 16.6016 237.799 16.4226C236.932 16.2104 236.146 15.9717 235.439 15.7131C234.732 15.4546 234.139 15.1297 233.645 14.7452C233.152 14.3606 232.772 13.8833 232.505 13.3131C232.232 12.7429 232.098 12.0335 232.098 11.1848V11.1384C232.098 10.3561 232.245 9.65331 232.538 9.02345C232.832 8.3936 233.245 7.85657 233.772 7.3991C234.299 6.94163 234.932 6.59024 235.665 6.35156C236.399 6.10625 237.212 5.98691 238.092 5.98691C239.353 5.98691 240.513 6.17255 241.573 6.55046C242.626 6.92837 243.6 7.4654 244.486 8.16155L242.52 10.9992C241.746 10.4754 240.993 10.0644 240.259 9.76602C239.519 9.46104 238.786 9.31518 238.046 9.31518C237.306 9.31518 236.752 9.46104 236.386 9.74613C236.019 10.0312 235.832 10.3892 235.832 10.8069V10.8533C235.832 11.1318 235.886 11.3705 235.992 11.576C236.099 11.7815 236.292 11.9672 236.572 12.1263C236.852 12.2921 237.232 12.4445 237.719 12.5904C238.199 12.7363 238.813 12.9086 239.553 13.1009C240.419 13.333 241.193 13.5849 241.873 13.87C242.553 14.1551 243.126 14.4998 243.593 14.8976C244.06 15.2954 244.413 15.7662 244.646 16.3032C244.886 16.8402 245.007 17.4834 245.007 18.2325V18.279C245.007 19.1276 244.853 19.8834 244.54 20.5398C244.233 21.2028 243.8 21.7531 243.246 22.2039C242.693 22.6548 242.033 22.9929 241.266 23.2316C240.499 23.4703 239.646 23.5896 238.712 23.5896L238.706 23.583Z" fill="white"/>
<path d="M221.951 23.4305C220.644 23.4305 219.444 23.2051 218.35 22.7476C217.257 22.2901 216.31 21.6735 215.51 20.8978C214.71 20.1221 214.09 19.2072 213.65 18.1596C213.203 17.1121 212.983 15.985 212.983 14.7849V14.7385C212.983 13.5385 213.21 12.4114 213.663 11.3638C214.117 10.3163 214.737 9.39473 215.537 8.59913C216.337 7.80353 217.284 7.18031 218.39 6.72284C219.491 6.26537 220.697 6.03995 222.004 6.03995C223.311 6.03995 224.511 6.26537 225.605 6.72284C226.698 7.18031 227.645 7.7969 228.445 8.57261C229.245 9.34832 229.865 10.2633 230.305 11.3108C230.745 12.3583 230.972 13.4855 230.972 14.6855V14.7319C230.972 15.9319 230.745 17.059 230.298 18.1066C229.845 19.1541 229.225 20.0757 228.425 20.8713C227.625 21.6669 226.678 22.2901 225.571 22.7476C224.464 23.2051 223.264 23.4305 221.957 23.4305H221.951ZM221.997 20.016C222.738 20.016 223.424 19.8768 224.051 19.605C224.678 19.3331 225.218 18.9552 225.658 18.4779C226.098 17.9939 226.445 17.4436 226.698 16.8071C226.945 16.1772 227.071 15.4943 227.071 14.7783V14.7319C227.071 14.0092 226.945 13.333 226.698 12.6899C226.451 12.0467 226.091 11.4898 225.631 11.0058C225.171 10.5285 224.631 10.1439 223.998 9.86547C223.371 9.587 222.684 9.44777 221.944 9.44777C221.204 9.44777 220.497 9.587 219.877 9.85884C219.257 10.1307 218.724 10.5086 218.284 10.9859C217.837 11.4699 217.497 12.0202 217.244 12.6567C216.997 13.2866 216.87 13.9694 216.87 14.6855V14.7319C216.87 15.4546 216.997 16.1375 217.244 16.7739C217.49 17.417 217.85 17.974 218.304 18.458C218.764 18.942 219.304 19.3199 219.924 19.5983C220.544 19.8768 221.231 20.016 221.991 20.016H221.997Z" fill="white"/>
<path d="M100.657 28.7875H105.145V29.424H101.358V31.5323H104.745V32.1688H101.358V34.3302H105.191V34.9667H100.657V28.7941V28.7875Z" fill="white"/>
<path d="M125.587 35.0661C125.14 35.0661 124.727 34.9866 124.347 34.8208C123.967 34.6551 123.64 34.4297 123.36 34.1446C123.08 33.8595 122.867 33.5213 122.706 33.1368C122.546 32.7456 122.473 32.3346 122.473 31.8904V31.8705C122.473 31.4329 122.553 31.0218 122.706 30.6373C122.86 30.2461 123.08 29.908 123.36 29.6163C123.64 29.3245 123.967 29.0925 124.353 28.9267C124.74 28.761 125.16 28.6748 125.613 28.6748C125.9 28.6748 126.154 28.7013 126.38 28.7477C126.607 28.7941 126.82 28.8604 127.014 28.9466C127.207 29.0328 127.387 29.1323 127.554 29.2582C127.72 29.3776 127.88 29.5102 128.034 29.6627L127.554 30.1732C127.287 29.9279 127 29.7223 126.7 29.5632C126.394 29.4041 126.034 29.3245 125.607 29.3245C125.267 29.3245 124.947 29.3908 124.653 29.5168C124.36 29.6494 124.107 29.8284 123.893 30.0538C123.68 30.2859 123.507 30.5511 123.387 30.8627C123.267 31.1743 123.207 31.5058 123.207 31.8572V31.8771C123.207 32.2351 123.267 32.5666 123.387 32.8782C123.507 33.1898 123.673 33.455 123.893 33.6871C124.107 33.9191 124.36 34.0982 124.653 34.2308C124.947 34.3634 125.267 34.4297 125.607 34.4297C126.034 34.4297 126.4 34.3501 126.707 34.1976C127.014 34.0385 127.314 33.8197 127.614 33.5412L128.074 33.9921C127.914 34.1578 127.747 34.3037 127.574 34.4363C127.4 34.5689 127.214 34.6816 127.014 34.7744C126.814 34.8672 126.594 34.9402 126.367 34.9932C126.134 35.0462 125.88 35.0728 125.593 35.0728L125.587 35.0661Z" fill="white"/>
<path d="M147.923 35.0595C147.536 35.0595 147.189 34.9998 146.869 34.8871C146.556 34.7744 146.282 34.602 146.056 34.3766C145.829 34.1512 145.649 33.8661 145.529 33.5346C145.402 33.1965 145.342 32.8119 145.342 32.381V28.7875H146.042V32.3346C146.042 33.0042 146.209 33.5213 146.549 33.8794C146.889 34.2374 147.349 34.4164 147.943 34.4164C148.536 34.4164 148.969 34.244 149.309 33.9059C149.649 33.5611 149.816 33.0572 149.816 32.381V28.7875H150.516V32.3279C150.516 32.7788 150.456 33.1766 150.329 33.5213C150.203 33.8595 150.029 34.1446 149.803 34.3766C149.576 34.6087 149.303 34.7744 148.989 34.8938C148.676 35.0065 148.323 35.0661 147.929 35.0661L147.923 35.0595Z" fill="white"/>
<path d="M170.618 28.7411H171.272L174.106 34.96H173.352L172.625 33.3291H169.245L168.512 34.96H167.792L170.618 28.7411ZM172.345 32.6926L170.932 29.55L169.512 32.6926H172.345Z" fill="white"/>
<path d="M191.474 28.7875H193.628C194.114 28.7875 194.561 28.8671 194.961 29.0196C195.368 29.172 195.715 29.3908 196.008 29.6693C196.301 29.9478 196.528 30.2726 196.688 30.6439C196.848 31.0152 196.928 31.4196 196.928 31.8572V31.8771C196.928 32.3147 196.848 32.7191 196.688 33.097C196.528 33.4749 196.301 33.7998 196.008 34.0783C195.715 34.3567 195.368 34.5689 194.961 34.728C194.554 34.8871 194.108 34.9667 193.628 34.9667H191.474V28.7941V28.7875ZM192.174 29.4306V34.3169H193.628C194.021 34.3169 194.374 34.2573 194.694 34.1313C195.015 34.0053 195.281 33.8396 195.508 33.6208C195.728 33.402 195.901 33.1434 196.021 32.8451C196.141 32.5467 196.201 32.2285 196.201 31.8904V31.8705C196.201 31.5323 196.141 31.2075 196.021 30.9157C195.901 30.6174 195.728 30.3588 195.508 30.14C195.288 29.9212 195.015 29.7489 194.694 29.6163C194.374 29.4903 194.021 29.424 193.628 29.424H192.174V29.4306Z" fill="white"/>
<path d="M217.437 35.0661C216.964 35.0661 216.537 34.9799 216.143 34.8076C215.757 34.6352 215.423 34.4098 215.143 34.118C214.863 33.8263 214.65 33.4882 214.503 33.1037C214.35 32.7191 214.277 32.3147 214.277 31.8904V31.8705C214.277 31.4461 214.357 31.0417 214.51 30.6505C214.663 30.2594 214.877 29.9212 215.157 29.6295C215.437 29.3378 215.77 29.1058 216.157 28.9334C216.544 28.761 216.977 28.6748 217.45 28.6748C217.924 28.6748 218.35 28.761 218.737 28.9334C219.124 29.1058 219.457 29.3378 219.737 29.6229C220.017 29.9146 220.231 30.2527 220.377 30.6373C220.531 31.0218 220.604 31.4263 220.604 31.8506V31.8705C220.604 32.2948 220.524 32.6992 220.377 33.0904C220.224 33.4749 220.004 33.8197 219.731 34.1114C219.451 34.4031 219.117 34.6352 218.73 34.8076C218.344 34.9799 217.91 35.0661 217.437 35.0661ZM217.457 34.423C217.81 34.423 218.137 34.3567 218.437 34.2241C218.737 34.0915 218.99 33.9125 219.204 33.6805C219.417 33.4484 219.584 33.1832 219.704 32.8782C219.824 32.5733 219.884 32.2418 219.884 31.8904V31.8705C219.884 31.5191 219.824 31.1876 219.704 30.876C219.584 30.5644 219.411 30.2992 219.197 30.0671C218.977 29.8351 218.717 29.656 218.424 29.5168C218.124 29.3842 217.797 29.3113 217.444 29.3113C217.09 29.3113 216.764 29.3776 216.464 29.5102C216.163 29.6428 215.91 29.8218 215.697 30.0538C215.483 30.2859 215.317 30.5511 215.197 30.8561C215.077 31.1611 215.017 31.4926 215.017 31.844V31.8638C215.017 32.2152 215.077 32.5467 215.197 32.8583C215.317 33.17 215.49 33.4352 215.703 33.6672C215.923 33.8993 216.183 34.0783 216.477 34.2109C216.777 34.3435 217.104 34.4164 217.457 34.4164V34.423Z" fill="white"/>
<path d="M238.246 28.7875H240.913C241.3 28.7875 241.64 28.8405 241.933 28.9533C242.233 29.0593 242.48 29.2118 242.673 29.4107C242.826 29.5632 242.946 29.7422 243.026 29.9478C243.106 30.1533 243.153 30.3787 243.153 30.624V30.6439C243.153 30.9025 243.113 31.1345 243.026 31.3401C242.946 31.5456 242.826 31.718 242.68 31.8705C242.526 32.023 242.353 32.1423 242.146 32.2417C241.94 32.3412 241.713 32.4075 241.473 32.4473L243.38 34.9733H242.52L240.719 32.5732H238.946V34.9733H238.246V28.8008V28.7875ZM240.853 31.9368C241.086 31.9368 241.293 31.9102 241.493 31.8506C241.686 31.7909 241.853 31.7047 242 31.5986C242.14 31.4926 242.253 31.36 242.333 31.2008C242.413 31.0417 242.453 30.8693 242.453 30.6638V30.6439C242.453 30.2594 242.313 29.961 242.033 29.7489C241.753 29.5367 241.366 29.424 240.859 29.424H238.946V31.9301H240.853V31.9368Z" fill="white"/>
<path d="M13.0281 30.8229C12.5013 30.6903 11.5746 30.5975 10.7878 30.7102C9.98107 30.8229 9.15431 31.1876 8.36089 31.539C7.63414 31.8572 6.9474 32.1556 6.26066 32.3014C5.82728 32.3876 5.35389 32.4208 4.88051 32.4208C4.4938 32.4208 4.10709 32.4009 3.72705 32.3677C4.08709 32.9114 4.46713 33.4484 4.90051 33.9655C5.14721 34.2573 5.4139 34.5424 5.68726 34.8208C7.46079 34.3236 10.6145 33.4749 13.8615 33.5213C16.0617 33.5545 17.6686 33.8794 19.2154 34.1976C19.8821 34.3302 20.5355 34.4694 21.209 34.5689L21.5757 34.6219C23.0225 34.8407 24.656 35.086 26.8829 35.1921C29.0098 35.2915 34.9104 34.6948 37.6974 34.3169C37.7574 34.1512 37.7974 33.9589 37.8108 33.707C37.8108 33.5876 37.8174 33.4617 37.8108 33.3158C37.8108 33.0175 37.8108 32.7257 37.8108 32.434C37.7974 32.434 37.7841 32.4274 37.7708 32.4208C36.484 32.0296 34.7238 31.4992 33.797 31.4528C32.8502 31.413 32.0901 31.6517 31.21 31.9301C30.75 32.076 30.2833 32.2219 29.7632 32.3412C28.5764 32.6064 27.383 32.8517 25.5494 31.8837C24.856 32.0826 24.1559 32.2484 23.4359 32.3412C21.209 32.6395 19.4288 32.1953 17.2819 31.7047C16.6018 31.5522 16.0217 31.2804 15.4683 30.9688C14.5616 31.0881 13.6015 30.9688 13.0414 30.8229H13.0281Z" fill="white"/>
<path d="M8.47422 8.6389C9.08096 8.76487 9.70102 8.92399 10.3144 9.10963C11.5346 9.47428 13.7148 9.8986 15.2083 10.1373C15.655 9.88534 16.1017 9.65329 16.5551 9.45439C18.742 8.49967 21.0623 8.14165 23.5625 8.64553C24.4826 8.83117 25.3427 9.08974 26.1228 9.40798C26.3562 9.50743 26.5829 9.62014 26.8096 9.73285C27.6763 9.58036 28.5031 9.37483 29.1965 9.19582C29.6899 9.06985 30.1099 8.96377 30.4166 8.91073C30.6566 8.87095 30.9567 8.79139 31.3034 8.7052C32.1168 8.49967 33.2102 8.22121 34.4037 8.16817C34.5304 7.9759 34.6837 7.79689 34.7971 7.59136C34.9438 7.31953 35.0571 6.79576 35.2971 6.60349C35.5038 6.43111 35.8439 6.62338 36.0506 6.36481C36.2039 6.17254 36.2706 5.97363 36.2639 5.77473C36.2572 5.41671 36.0172 5.05869 35.6772 4.72056C35.0171 4.68741 34.3104 4.62111 33.6036 4.54818L33.3103 4.51503C32.6302 4.4421 31.8568 4.24983 31.11 4.06419C30.5766 3.93159 30.0432 3.79236 29.5499 3.7128C27.963 3.43434 26.7229 3.28185 25.116 3.29511C23.1091 3.315 21.3823 3.54042 20.3889 3.92496C20.0088 4.07082 19.6154 4.24983 19.1821 4.4421C18.2486 4.85979 17.0818 5.38356 15.5617 5.80125C13.8948 6.25873 9.1343 6.45763 5.75393 6.50404C5.71392 6.54382 5.67392 6.5836 5.62725 6.62338C5.37389 6.84217 5.13386 7.02781 4.9005 7.20682C4.43378 7.57147 4.00707 7.89634 3.62036 8.32729C4.62714 8.27425 6.82738 8.31403 8.46756 8.65879L8.47422 8.6389Z" fill="white"/>
<path d="M29.5231 31.5124C30.0565 31.3931 30.5033 31.2539 30.9366 31.1146C31.8567 30.8229 32.7368 30.5445 33.8236 30.5975C34.8037 30.6439 36.4306 31.1213 37.7907 31.5323C37.7907 30.3853 37.7974 29.2317 37.8107 28.0847C37.1973 28.1245 36.5772 28.151 35.9638 28.151C33.1702 28.151 30.5099 27.8195 29.8699 27.7333C29.6032 27.7002 29.3098 27.6405 29.0164 27.5742C29.0164 28.4693 29.0164 29.3643 29.0164 30.266C29.0164 30.5975 27.4163 31.234 26.7495 31.4859C27.8496 31.8638 28.6431 31.7047 29.5165 31.5124H29.5231Z" fill="white"/>
<path d="M5.02043 19.7641C4.00698 19.8768 2.9602 20.1155 1.94676 20.3409C1.28669 20.4934 0.646616 20.6326 0.0398832 20.7387C0.0398832 20.8978 0.0398832 21.0569 0.0332158 21.216C-0.000121157 22.2437 -0.0601277 23.3111 0.153229 24.3123C0.173231 24.4183 0.206568 24.5244 0.233238 24.6239C0.513268 24.5708 0.799966 24.5178 1.10667 24.4647C2.19345 24.2658 3.34691 24.0603 4.127 23.8946C5.7405 23.5631 8.00075 23.1653 9.74094 22.9001C9.59426 22.0912 9.52092 21.2426 9.52092 20.374V20.2613C9.52092 20.2613 9.52092 20.2149 9.52092 20.195C8.28745 19.8967 6.57393 19.5917 5.01376 19.7641H5.02043Z" fill="white"/>
<path d="M30.5698 9.75273C30.2764 9.80577 29.883 9.90522 29.4163 10.0246C29.0029 10.1306 28.5096 10.25 27.9895 10.3627C28.1295 10.4423 28.2762 10.5152 28.4095 10.6014C28.8563 10.8931 29.3096 11.2113 29.7564 11.5561C30.5631 12.1727 30.8165 12.3318 31.4765 11.6688C32.1366 10.9992 32.61 10.1108 33.3301 9.47427C33.4634 9.35493 33.5834 9.2157 33.7101 9.0831C32.9034 9.18918 32.1566 9.37482 31.5299 9.53394C31.1565 9.62676 30.8365 9.71295 30.5765 9.75273H30.5698Z" fill="white"/>
<path d="M37.8239 27.2295C37.8239 26.6261 37.8372 26.0228 37.8372 25.4195C37.8372 24.8559 37.8372 24.2924 37.8306 23.7354C37.8306 23.457 37.8306 23.1785 37.8306 22.9067C37.2705 23.026 36.5638 23.0923 35.6637 23.1122C33.9368 23.1454 32.1299 22.7409 30.4164 22.3431C28.8696 21.9851 27.4028 21.6404 26.0293 21.6404C24.2758 21.6404 22.4022 22.6481 21.0354 23.3774C20.762 23.5233 20.5153 23.6559 20.282 23.7752C20.302 24.0868 20.3553 24.352 20.4753 24.4846C21.7155 25.8703 25.2559 24.9023 27.0294 24.9023C27.0961 24.9023 27.1627 24.9023 27.2227 24.9023C28.5295 24.962 29.0496 25.1211 29.0363 26.4471C29.0363 26.5333 29.0363 26.6195 29.0363 26.6991C29.3696 26.7786 29.7097 26.8449 30.003 26.8847C30.7765 26.9841 34.5435 27.4549 37.8372 27.2361L37.8239 27.2295Z" fill="white"/>
<path d="M2.07349 29.5433C2.42019 30.1931 2.78023 30.8296 3.14694 31.4528C4.06704 31.539 5.21383 31.6318 6.08059 31.4528C6.68065 31.3334 7.32072 31.0484 8.00747 30.75C8.86089 30.3787 9.74099 29.9876 10.6678 29.8616C11.5812 29.7356 12.6213 29.8351 13.248 29.9942C13.4614 30.0472 13.7281 30.0936 14.0148 30.1202C13.6814 29.9478 13.3147 29.8218 13.0613 29.5433C12.9813 29.4505 12.5813 28.5289 12.6346 28.5356C12.2479 28.5157 11.9212 28.2637 11.6345 27.9124C11.4012 27.6206 11.2145 27.256 11.0411 26.8847C10.5811 26.9775 10.0544 27.1234 9.46762 27.3886C7.96079 28.0648 4.41374 29.0395 2.08682 29.55L2.07349 29.5433Z" fill="white"/>
<path d="M26.836 36.054C24.5691 35.9479 22.9089 35.696 21.4421 35.4706L21.0754 35.4175C20.382 35.3114 19.7153 35.1788 19.0352 35.0396C17.5217 34.7346 15.9615 34.4164 13.8413 34.3832C10.9876 34.3302 8.26069 34.9998 6.41382 35.5103C7.38726 36.3921 8.44071 37.1811 9.6075 37.8574C10.4943 38.3745 11.4344 38.832 12.4211 39.2232C13.908 39.8132 15.4748 40.1514 17.0083 40.5425C21.3154 41.6298 26.5027 40.6486 30.5031 38.9182C31.1298 38.6463 31.7299 38.3613 32.3166 38.0629C32.73 37.8507 33.1434 37.6386 33.5368 37.4132C34.5769 36.8297 35.5903 36.18 36.5504 35.4639C36.6304 35.4043 36.6904 35.3579 36.7638 35.3048C34.0502 35.6363 29.683 36.0673 27.4161 36.0673C27.1961 36.0673 27.0027 36.0673 26.8294 36.054H26.836Z" fill="white"/>
<path d="M2.7601 14.0556C4.83366 14.0158 7.80731 14.2678 10.8076 14.7451C11.0677 14.2545 11.3477 13.7772 11.6211 13.2799C11.8811 12.8092 12.0011 11.9871 12.4345 11.6622C12.8745 11.3307 13.5479 11.1251 14.0613 10.8135C12.6812 10.5682 11.081 10.2367 10.0676 9.93175C9.47416 9.75274 8.88076 9.60025 8.29403 9.48091C6.81387 9.1693 4.69364 9.10963 3.66686 9.1693L2.98679 9.20245C2.98679 9.20245 2.96012 9.24223 2.94679 9.26875C2.55341 10.0179 2.24671 10.8268 1.94001 11.6158C1.82666 11.9009 1.71332 12.186 1.59997 12.4578C1.36661 13.0081 1.16659 13.5783 0.986572 14.1551C1.10659 14.1484 1.21993 14.1418 1.33994 14.1285C1.90667 14.0888 2.4534 14.049 2.7601 14.0424V14.0556Z" fill="white"/>
<path d="M26.0159 20.7718C27.4961 20.7718 29.0029 21.1232 30.6031 21.4945C32.2633 21.879 33.9835 22.2768 35.6303 22.2437C36.5771 22.2238 37.2972 22.1509 37.8172 22.0183C37.8172 21.163 37.8172 20.3011 37.8306 19.4458C37.8372 19.0878 37.9439 18.7165 37.9839 18.3784C38.0439 17.9342 37.9972 17.5364 37.5039 17.2645C36.7971 16.8734 35.6903 17.185 34.9236 17.185H24.4491C23.8357 17.185 22.9889 17.112 22.2222 17.1982C21.8021 17.2446 21.4088 17.3375 21.0887 17.5098C20.9887 17.5629 20.8887 17.6292 20.8087 17.7021C20.7154 17.7883 20.6354 17.8878 20.562 17.9938C20.382 18.2856 20.302 18.6834 20.3753 19.2071C20.482 19.9497 21.0821 19.6447 21.1621 20.1817C21.1887 20.3674 20.5487 21.037 20.482 21.3553C20.4287 21.6271 20.3287 22.184 20.282 22.7674C20.3887 22.7144 20.4953 22.6547 20.5953 22.6017C22.0422 21.826 24.0291 20.7585 26.0026 20.7585L26.0159 20.7718Z" fill="white"/>
<path d="M1.26005 25.3134C0.980018 25.3664 0.719989 25.4128 0.459961 25.4592C0.673317 26.3278 0.840002 27.2162 1.26005 28.0118C1.3934 28.2637 1.52674 28.509 1.65342 28.7543C3.99368 28.2571 7.70075 27.2228 9.10757 26.593C9.6943 26.3278 10.221 26.1753 10.6944 26.0758C10.5677 25.7443 10.4611 25.4327 10.3744 25.2139C10.1944 24.7432 10.0477 24.2526 9.92766 23.7487C8.2008 24.0073 5.92056 24.4117 4.30705 24.7432C3.52029 24.9089 2.3535 25.1145 1.26672 25.3134H1.26005Z" fill="white"/>
<path d="M4.9272 18.9088C6.54737 18.7298 8.2809 19.0215 9.5677 19.3198C9.5877 19.0546 9.60771 18.7894 9.64104 18.5309C9.77439 17.5297 10.0211 16.5618 10.3811 15.6468C10.3945 15.6137 10.4078 15.5871 10.4211 15.554C7.56082 15.1098 4.76051 14.8711 2.78696 14.9175C2.48693 14.9175 1.96021 14.9639 1.40681 15.0037C1.18012 15.017 0.960098 15.0369 0.740074 15.0501C0.586724 15.6336 0.446709 16.2236 0.346698 16.8336C0.280024 17.238 0.220018 17.6491 0.180013 18.0601C0.120007 18.6502 0.100005 19.2535 0.0866699 19.8635C0.620061 19.7641 1.18012 19.6447 1.76685 19.5121C2.8003 19.2801 3.87375 19.0348 4.94053 18.9154L4.9272 18.9088Z" fill="white"/>
<path d="M18.8287 3.63987C19.2754 3.44097 19.6821 3.25533 20.0755 3.10284C21.5623 2.53266 23.8692 2.42658 25.1027 2.41995C26.8095 2.40006 28.103 2.57244 29.6965 2.8509C30.2032 2.93709 30.7566 3.07632 31.3167 3.21555C32.0301 3.39456 32.7702 3.5802 33.3969 3.6465L33.6903 3.67965C33.937 3.70617 34.1903 3.73269 34.437 3.75921C33.6169 3.24207 32.7568 2.83764 32.4235 2.65863C31.5367 2.17464 30.6299 1.75032 29.6765 1.41219C28.4297 0.961344 27.0762 0.616584 25.6361 0.371273C24.1959 0.132593 22.5691 0.00662231 20.8155 0.00662231C17.8152 0.00662231 15.0149 0.543653 12.5013 1.61109C10.9345 2.27409 9.22761 3.20892 7.90747 4.27635C7.41408 4.67415 7.00737 5.15151 6.59399 5.61561C10.0344 5.54931 13.9948 5.33052 15.3349 4.95924C16.7884 4.56144 17.8752 4.07745 18.8287 3.6465V3.63987Z" fill="white"/>
<path d="M76.8483 15.4943C75.0081 15.4546 72.6279 15.6004 70.481 15.8789C70.8877 16.4955 71.2477 17.0922 71.5011 17.7419C71.5811 17.9541 71.6611 18.1662 71.7211 18.3917C71.8078 18.7033 71.8744 19.0281 71.9144 19.3795C73.1479 19.3265 74.168 19.479 75.6215 19.7044L76.2816 19.8039C78.0284 20.0624 79.8953 20.6989 81.0288 21.2227C81.0688 20.9508 81.1088 20.679 81.1288 20.4072C81.1821 19.7309 81.1755 19.0613 81.1288 18.385C81.1088 18.0535 81.0754 17.7154 81.0288 17.3839C80.9421 16.7673 80.8154 16.1507 80.6687 15.5474C80.2754 15.5474 79.8486 15.5341 79.4086 15.5341C78.4618 15.5209 77.4884 15.5076 76.8417 15.4943H76.8483Z" fill="white"/>
<path d="M45.4248 16.1109C46.9716 16.2568 48.7785 16.4093 50.0786 16.3629C50.1786 15.9518 50.272 15.5606 50.3586 15.249C50.4386 14.9573 50.5653 14.6722 50.7187 14.4004C49.0852 13.5915 47.8117 13.2203 47.0183 13.0744C45.6581 12.8291 44.0913 12.9484 42.5711 13.0744C42.0577 13.1142 41.5643 13.154 41.0843 13.1805C41.071 13.26 41.0443 13.3396 41.0376 13.4258C40.9976 13.6976 40.9709 13.9827 40.9376 14.2612C40.9043 14.5728 40.8643 14.891 40.7976 15.196C40.7909 15.2291 40.7843 15.2623 40.7776 15.2888C41.6777 15.3419 42.5044 15.5142 43.2979 15.7065C43.9779 15.8723 44.6847 16.038 45.4314 16.1109H45.4248Z" fill="white"/>
<path d="M75.4947 20.553C74.0545 20.3342 73.1078 20.1884 71.961 20.2414C71.9677 20.5265 71.981 20.805 71.961 21.1232C71.9143 21.7663 71.4476 22.2702 71.2676 22.8271C71.2409 22.9133 71.2209 22.9995 71.2076 23.0857C71.2076 23.1321 71.2076 23.205 71.2076 23.2912C71.2276 23.7288 71.3342 24.5708 71.3142 24.6438C71.1609 25.1079 70.8742 25.5786 70.5142 26.0493C71.2409 26.341 72.141 26.6792 72.5344 26.8051C75.0213 27.6273 77.2282 28.0847 79.6085 28.2969C79.7418 27.9787 79.8885 27.6604 79.9952 27.3355C80.0019 27.309 80.0152 27.2825 80.0219 27.256C80.1552 26.8648 80.2619 26.467 80.3352 26.0559C80.3952 25.7178 80.4019 25.3797 80.4019 25.0416C80.4019 24.7101 80.3752 24.3786 80.3752 24.0537C80.3752 23.7421 80.3752 23.4238 80.4286 23.1056C80.4886 22.7277 80.7153 22.4227 80.8553 22.0846C79.9218 21.6205 78.0416 20.9243 76.1548 20.6392L75.4947 20.5398V20.553Z" fill="white"/>
<path d="M47.3651 20.7851C48.3319 20.553 48.9053 20.5597 49.352 20.6392C49.412 19.8768 49.5187 19.0679 49.672 18.2789C49.7387 17.9143 49.8187 17.5761 49.8921 17.238C49.7987 17.238 49.712 17.2446 49.612 17.2446C48.3519 17.2446 46.7984 17.1187 45.3449 16.9794C44.5315 16.8999 43.7981 16.7209 43.0913 16.5551C42.2579 16.3562 41.4511 16.1772 40.5644 16.1507C40.4844 16.4623 40.3977 16.7805 40.3177 17.0922C40.1977 17.5364 40.0843 17.9739 39.991 18.4182C39.8376 19.1342 39.731 19.8569 39.731 20.5994C39.731 21.6801 39.811 22.8536 39.971 24.0272C40.6244 23.7354 41.4711 23.3443 42.3046 22.9531C44.3448 21.9984 46.4517 21.0105 47.3718 20.7917L47.3651 20.7851Z" fill="white"/>
<path d="M54.9126 3.65976C57.4796 3.55368 60.6999 4.21005 64.507 5.62888C67.3273 6.68305 71.3678 6.64327 74.9215 6.61012C75.1948 6.61012 75.4549 6.61012 75.7149 6.61012C75.2215 6.13276 74.6681 5.66866 74.1414 5.39683C73.1413 4.87968 72.6746 4.48188 71.9145 3.60009C71.2677 2.8509 70.2676 2.38017 69.2675 2.02878C68.7741 1.8564 68.2741 1.71717 67.8207 1.5912C66.6006 1.25307 65.4071 1.26633 64.227 0.822116C60.92 -0.417696 56.9329 0.278455 53.6858 1.33263C51.2656 2.11497 49.132 3.26859 47.2651 4.76034C48.2719 4.64763 49.2854 4.46862 50.3255 4.27635C51.8056 4.01115 53.3391 3.73269 54.9193 3.65976H54.9126Z" fill="white"/>
<path d="M55.946 10.3892C56.0393 10.3494 56.146 10.2964 56.2327 10.2566C57.3528 9.77262 58.5396 9.20244 59.7597 9.03006C61.3732 8.81127 62.9201 9.50079 64.3669 10.1837C64.6469 10.3163 64.9203 10.4423 65.1937 10.5682C65.3137 10.6213 65.4137 10.6677 65.5204 10.7207C67.4339 10.5086 69.1608 10.0312 69.7408 9.85881C70.3209 9.68643 70.9009 9.54057 71.4543 9.42123C72.7478 9.1494 74.1413 9.05658 75.9615 9.11625C76.4949 9.13614 77.215 9.23559 77.9217 9.35493C77.6484 8.94387 77.3817 8.53281 77.075 8.14164C76.8949 7.90959 76.7083 7.6908 76.5149 7.46538C76.0015 7.46538 75.4681 7.46538 74.9214 7.47864C74.2747 7.47864 73.6146 7.4919 72.9478 7.4919C69.8608 7.4919 66.6472 7.3593 64.2136 6.45099C60.4998 5.06532 57.3928 4.41557 54.9459 4.52828C53.4191 4.59458 51.9189 4.86642 50.4654 5.13162C49.0586 5.38356 47.6184 5.62887 46.1583 5.7018C45.8116 6.02667 45.4715 6.35817 45.1448 6.70293C45.1315 6.71619 45.1181 6.73608 45.0981 6.74934C44.5581 7.32615 44.0647 7.94937 43.5913 8.58585C45.6182 8.73171 47.6918 9.12951 49.712 9.52731C51.9322 9.9649 54.0324 10.3561 55.9327 10.3958L55.946 10.3892Z" fill="white"/>
<path d="M67.1339 36.6574C64.5136 35.9413 61.7467 35.8153 58.4396 36.2595C55.9127 36.5977 52.3657 37.0684 48.6252 36.969C48.9119 37.1612 49.1986 37.3601 49.4987 37.5391C49.8787 37.7646 50.2721 37.9767 50.6721 38.1889C53.1057 39.4353 55.826 40.1779 58.8264 40.4166C61.8267 40.6486 64.6403 40.3436 67.2606 39.4884C68.4874 39.0906 69.6542 38.5668 70.7677 37.9635C70.5476 37.8839 70.3276 37.7977 70.1009 37.7115C69.0208 37.3005 67.9007 36.8761 67.1273 36.664L67.1339 36.6574Z" fill="white"/>
<path d="M56.2727 33.6274C54.9393 34.1313 53.1391 34.4495 52.4923 34.4495C50.9655 34.4495 49.8854 33.8263 48.9319 33.2827C48.0785 32.792 47.3451 32.381 46.4117 32.4207C45.2182 32.4871 44.5381 32.6727 44.0381 32.865C44.0514 32.8848 44.0648 32.9047 44.0781 32.9246C44.2114 33.0904 44.3448 33.2561 44.4848 33.4219C44.6248 33.5744 44.7582 33.7269 44.9048 33.8794C45.3516 34.3567 45.8316 34.8142 46.325 35.2518C46.6517 35.5369 47.0051 35.7954 47.3451 36.0606C51.4856 36.3325 55.5327 35.7888 58.3263 35.4109C61.7533 34.9468 64.627 35.0794 67.3673 35.8286C68.174 36.0474 69.3142 36.4849 70.4143 36.9026C70.901 37.0883 71.3477 37.254 71.7678 37.4065C73.1146 36.5778 74.3547 35.5899 75.4482 34.4363C75.6615 34.2109 75.8815 33.9854 76.0882 33.7401C76.1282 33.6937 76.1682 33.6539 76.2083 33.6142C75.5882 33.528 74.9814 33.4484 74.348 33.3556C68.4674 32.5136 61.8067 31.5588 56.2727 33.6274Z" fill="white"/>
<path d="M71.6411 10.2632C71.1077 10.376 70.5543 10.5152 69.9943 10.6809C69.5209 10.8202 68.3141 11.1583 66.8606 11.4036C67.7674 11.9473 68.2007 12.5042 69.1142 13.8633C69.4075 14.3009 69.6876 14.6987 69.9476 15.0766C72.2412 14.7584 74.8615 14.586 76.8684 14.6324C77.5084 14.6457 78.4819 14.6589 79.422 14.6722C79.7687 14.6722 80.1154 14.6788 80.4354 14.6855C80.3754 14.4667 80.3154 14.2479 80.2421 14.0357C80.1354 13.7241 80.0287 13.4125 79.9087 13.1075C79.5353 12.1395 79.0753 11.2246 78.5619 10.3494C77.6818 10.1837 76.615 10.0047 75.9416 9.98478C74.1881 9.93174 72.8612 10.0179 71.6411 10.2765V10.2632Z" fill="white"/>
<path d="M49.3654 32.5335C50.2655 33.0506 51.1989 33.5876 52.4924 33.5876C53.0658 33.5876 54.7393 33.2826 55.9661 32.8185C57.5463 32.2285 59.2064 31.8771 60.9 31.6914C60.4466 31.6318 59.9932 31.5522 59.5465 31.4329C57.7529 30.9555 56.6395 31.1544 55.526 30.7434C54.9526 30.5312 54.3792 30.1665 53.7125 29.4571C53.1458 28.8538 52.479 28.0781 51.839 27.2361C51.1122 27.3355 50.1854 27.3687 49.5654 27.3952L49.3054 27.4085C48.5653 27.4416 47.1785 27.4946 45.6383 27.4946C43.9448 27.4946 42.0779 27.4283 40.6978 27.2162C40.9978 28.0847 41.3645 28.9135 41.8579 29.6163C42.2846 30.2196 42.6646 30.8494 43.0647 31.466C43.2114 31.6914 43.378 31.9102 43.5314 32.1357C44.0915 31.9036 44.8849 31.6384 46.365 31.5588C47.5452 31.4925 48.4786 32.0229 49.3654 32.5335Z" fill="white"/>
<path d="M47.1717 12.2324C48.0385 12.3915 49.4319 12.7959 51.2055 13.6843C51.5322 13.2799 51.8989 12.8887 52.3322 12.5373C52.9723 12.0069 53.6991 11.5694 54.4125 11.1716C52.8723 11.0124 51.2455 10.7008 49.5519 10.3693C47.3717 9.93838 45.1315 9.51405 42.9912 9.42123C42.9312 9.50742 42.8712 9.58698 42.8179 9.67317C42.3112 10.4754 41.7578 11.3506 41.3644 12.2058C41.3511 12.2324 41.3444 12.2655 41.3311 12.2987C41.7111 12.2721 42.0978 12.2456 42.4978 12.2125C44.0714 12.0865 45.6982 11.9539 47.1717 12.2257V12.2324Z" fill="white"/>
<path d="M49.2518 26.5532L49.5385 26.5399C49.9852 26.5201 50.6586 26.4935 51.2654 26.4405C50.492 25.3399 49.8185 24.1797 49.4985 23.1454C49.4852 23.0923 49.4652 23.0459 49.4518 22.9929C49.3652 22.6945 49.3252 22.3431 49.3052 21.952C49.3052 21.8061 49.3052 21.647 49.3052 21.4945C48.9184 21.4083 48.4717 21.4017 47.5716 21.6138C46.7382 21.8127 44.578 22.8205 42.6711 23.7156C41.6777 24.1797 40.7642 24.604 40.0908 24.8957C40.1175 25.0614 40.1508 25.2272 40.1842 25.3929C40.1975 25.4394 40.2042 25.4858 40.2175 25.5388C40.2708 25.7908 40.3442 26.0361 40.4109 26.288C42.3444 26.6725 46.1782 26.6792 49.2518 26.5399V26.5532Z" fill="white"/>
<path d="M69.9208 26.7455C69.7208 26.9642 69.5341 27.183 69.3141 27.4018C68.4273 28.2836 67.4272 29.119 66.6604 29.8151C66.5271 29.9345 66.4004 30.0538 66.2871 30.1599C65.5803 30.8428 64.7602 31.2738 63.8801 31.5191C67.4405 31.4925 71.0809 32.0097 74.4679 32.4937C75.308 32.613 76.1348 32.7257 76.9482 32.8384C77.3816 32.4075 77.8083 31.9699 78.1083 31.4594C78.155 31.3732 78.2017 31.287 78.2484 31.2008C78.6084 30.5378 78.9284 29.8085 79.2485 29.1323C76.9082 28.9002 74.7213 28.4427 72.261 27.6339C72.241 27.6339 70.9009 27.1631 69.9208 26.7455Z" fill="white"/>
</g>
<defs>
<clipPath id="clip0_664_24230">
<rect width="245" height="41" fill="white"/>
</clipPath>
</defs>
</svg>
